<?xml version="1.0" encoding="UTF-8"?>
<svg width="125px" height="125px" viewBox="0 0 125 125" version="1.1" xmlns="http://www.w3.org/2000/svg" xmlns:xlink="http://www.w3.org/1999/xlink">
    <title>折叠框 Collapsebox</title>
    <defs>
        <linearGradient x1="50%" y1="45.9685271%" x2="50%" y2="100%" id="linearGradient-1">
            <stop stop-color="#ECF3FB" offset="0%"></stop>
            <stop stop-color="#FFFFFF" offset="100%"></stop>
        </linearGradient>
        <linearGradient x1="50.3956523%" y1="35.9331967%" x2="50%" y2="64.0668033%" id="linearGradient-2">
            <stop stop-color="#E3EFFD" stop-opacity="0.00575352382" offset="0%"></stop>
            <stop stop-color="#E5F0FD" offset="34.0601199%"></stop>
            <stop stop-color="#F0F6FE" offset="100%"></stop>
        </linearGradient>
        <linearGradient x1="33.3333333%" y1="34.495573%" x2="96.9740837%" y2="65.4421891%" id="linearGradient-3">
            <stop stop-color="#D5E6F9" offset="0%"></stop>
            <stop stop-color="#F7FBFF" stop-opacity="0" offset="100%"></stop>
        </linearGradient>
        <linearGradient x1="90.9912104%" y1="29.4309598%" x2="33.3333333%" y2="67.7472684%" id="linearGradient-4">
            <stop stop-color="#D5E6F9" offset="0%"></stop>
            <stop stop-color="#E7F0F9" stop-opacity="0" offset="100%"></stop>
        </linearGradient>
        <linearGradient x1="-5.8027489%" y1="27.0499439%" x2="103.630422%" y2="71.1332543%" id="linearGradient-5">
            <stop stop-color="#CEE6FE" offset="0%"></stop>
            <stop stop-color="#8AB5F2" offset="100%"></stop>
        </linearGradient>
        <linearGradient x1="-5.8027489%" y1="27.0499439%" x2="103.630422%" y2="71.1332543%" id="linearGradient-6">
            <stop stop-color="#BFD6F9" offset="0%"></stop>
            <stop stop-color="#F3F6FE" offset="100%"></stop>
        </linearGradient>
        <linearGradient x1="89.8473889%" y1="61.7348066%" x2="0%" y2="61.7348066%" id="linearGradient-7">
            <stop stop-color="#CAD9F3" offset="0%"></stop>
            <stop stop-color="#D5E3F7" offset="100%"></stop>
        </linearGradient>
        <filter x="-18.5%" y="-60.0%" width="136.9%" height="220.0%" filterUnits="objectBoundingBox" id="filter-8">
            <feGaussianBlur stdDeviation="4" in="SourceGraphic"></feGaussianBlur>
        </filter>
        <linearGradient x1="44.0988019%" y1="71.2753637%" x2="128.792906%" y2="-4.18641741%" id="linearGradient-9">
            <stop stop-color="#5073E5" offset="0%"></stop>
            <stop stop-color="#5E7CE0" offset="100%"></stop>
        </linearGradient>
        <linearGradient x1="44.0988019%" y1="63.2619166%" x2="128.792906%" y2="16.2231039%" id="linearGradient-10">
            <stop stop-color="#5073E5" offset="0%"></stop>
            <stop stop-color="#5E7CE0" offset="100%"></stop>
        </linearGradient>
        <linearGradient x1="44.0988019%" y1="63.2619166%" x2="128.792906%" y2="16.2231039%" id="linearGradient-11">
            <stop stop-color="#5073E5" offset="0%"></stop>
            <stop stop-color="#5E7CE0" offset="100%"></stop>
        </linearGradient>
        <rect id="path-12" x="0" y="0" width="70" height="42" rx="4"></rect>
        <filter x="-6.4%" y="-6.0%" width="112.9%" height="121.4%" filterUnits="objectBoundingBox" id="filter-13">
            <feMorphology radius="0.5" operator="dilate" in="SourceAlpha" result="shadowSpreadOuter1"></feMorphology>
            <feOffset dx="0" dy="2" in="shadowSpreadOuter1" result="shadowOffsetOuter1"></feOffset>
            <feGaussianBlur stdDeviation="1" in="shadowOffsetOuter1" result="shadowBlurOuter1"></feGaussianBlur>
            <feComposite in="shadowBlurOuter1" in2="SourceAlpha" operator="out" result="shadowBlurOuter1"></feComposite>
            <feColorMatrix values="0 0 0 0 0.368627451   0 0 0 0 0.48627451   0 0 0 0 0.878431373  0 0 0 0.65213034 0" type="matrix" in="shadowBlurOuter1"></feColorMatrix>
        </filter>
        <path d="M60.709796,6.67973063 L60.7092404,9.79073063 L63.8209071,9.79084174 L63.8209071,11.0352862 L60.7092404,11.0347306 L60.709796,14.1463973 L59.4653515,14.1463973 L59.4652404,11.0347306 L56.3542404,11.0352862 L56.3542404,9.79084174 L59.4652404,9.79073063 L59.4653515,6.67973063 L60.709796,6.67973063 Z" id="path-14"></path>
        <filter x="-26.8%" y="-26.8%" width="153.6%" height="153.6%" filterUnits="objectBoundingBox" id="filter-15">
            <feMorphology radius="0.5" operator="dilate" in="SourceAlpha" result="shadowSpreadOuter1"></feMorphology>
            <feOffset dx="0" dy="0" in="shadowSpreadOuter1" result="shadowOffsetOuter1"></feOffset>
            <feGaussianBlur stdDeviation="0.5" in="shadowOffsetOuter1" result="shadowBlurOuter1"></feGaussianBlur>
            <feComposite in="shadowBlurOuter1" in2="SourceAlpha" operator="out" result="shadowBlurOuter1"></feComposite>
            <feColorMatrix values="0 0 0 0 0.232993057   0 0 0 0 0.361563365   0 0 0 0 0.790131058  0 0 0 1 0" type="matrix" in="shadowBlurOuter1"></feColorMatrix>
        </filter>
    </defs>
    <g id="页面一" stroke="none" stroke-width="1" fill="none" fill-rule="evenodd">
        <g id="-TinyUI-ICON-2-【9-2】-无阴影备份" transform="translate(-696.000000, -334.000000)">
            <g id="编组-17" transform="translate(598.000000, 301.000000)">
                <g id="折叠框-Collapsebox" transform="translate(98.000000, 33.000000)">
                    <g id="背景" transform="translate(9.000000, 1.000000)">
                        <g id="编组">
                            <polygon id="多边形" fill="url(#linearGradient-1)" opacity="0.54620216" points="53.2605623 0 106.521125 30.75 53.2605623 62 0 30.75"></polygon>
                            <polygon id="多边形" fill="url(#linearGradient-2)" points="53.2605623 61.5 106.521125 86.75 53.2605623 118 0 86.75"></polygon>
                            <polygon id="多边形" fill="url(#linearGradient-3)" opacity="0.600606283" points="53.2605623 62 53.2605623 123 7.39138783e-15 92.25 0 30.75"></polygon>
                            <polygon id="多边形" fill="url(#linearGradient-4)" opacity="0.791265578" points="53.2605623 62 106.521125 30.75 106.521125 92.25 53.2605623 123"></polygon>
                            <polygon id="多边形" fill="url(#linearGradient-5)" points="53.2605623 118.007802 53.2605623 123 7.39138783e-15 92.25 0 86.9161706"></polygon>
                            <polygon id="多边形" fill="url(#linearGradient-6)" transform="translate(79.630281, 104.958085) scale(-1, 1) translate(-79.630281, -104.958085) " points="106.260562 118.007802 106.260562 123 53 92.25 53 86.9161706"></polygon>
                        </g>
                        <ellipse id="椭圆形" fill="url(#linearGradient-7)" filter="url(#filter-8)" cx="53.5" cy="89" rx="32.5" ry="10"></ellipse>
                    </g>
                    <g id="编组-2" transform="translate(31.758824, 31.000000)" fill="url(#linearGradient-9)" opacity="0.204287574">
                        <path d="M4,0 L15.015766,0 L15.015766,0 L65.7411765,0 C67.9503155,7.44262609e-15 69.7411765,1.790861 69.7411765,4 L69.7411765,49 C69.7411765,51.209139 67.9503155,53 65.7411765,53 L4,53 C1.790861,53 2.705415e-16,51.209139 0,49 L0,4 C-7.1463071e-16,1.790861 1.790861,4.05812251e-16 4,0 Z" id="矩形"></path>
                    </g>
                    <g id="编组" transform="translate(24.000000, 42.000000)">
                        <g id="形状结合">
                            <use fill="black" fill-opacity="1" filter="url(#filter-13)" xlink:href="#path-12"></use>
                            <use stroke="url(#linearGradient-11)" stroke-width="1" fill="url(#linearGradient-10)" fill-rule="evenodd" xlink:href="#path-12"></use>
                        </g>
                        <g id="形状结合" fill-rule="nonzero" transform="translate(60.087574, 10.413064) rotate(-315.000000) translate(-60.087574, -10.413064) ">
                            <use fill="black" fill-opacity="1" filter="url(#filter-15)" xlink:href="#path-14"></use>
                            <use stroke="#FFFFFF" stroke-width="1" fill="#FFFFFF" xlink:href="#path-14"></use>
                        </g>
                        <path d="M9.5,26 L54.5,26 C55.8807119,26 57,27.1192881 57,28.5 C57,29.8807119 55.8807119,31 54.5,31 L9.5,31 C8.11928813,31 7,29.8807119 7,28.5 C7,27.1192881 8.11928813,26 9.5,26 Z" id="形状结合备份" fill="#FFFFFF" fill-rule="nonzero"></path>
                        <path d="M10.5,12 L28.5,12 C29.8807119,12 31,13.1192881 31,14.5 C31,15.8807119 29.8807119,17 28.5,17 L10.5,17 C9.11928813,17 8,15.8807119 8,14.5 C8,13.1192881 9.11928813,12 10.5,12 Z" id="形状结合备份-17" fill="#FFFFFF" fill-rule="nonzero" opacity="0.699016753"></path>
                    </g>
                </g>
            </g>
        </g>
    </g>
</svg>