<?xml version="1.0" encoding="UTF-8"?>
<svg width="125px" height="125px" viewBox="0 0 125 125" version="1.1" xmlns="http://www.w3.org/2000/svg" xmlns:xlink="http://www.w3.org/1999/xlink">
    <title>DatetimeRange 日期时间范围</title>
    <defs>
        <linearGradient x1="50%" y1="45.9685271%" x2="50%" y2="100%" id="linearGradient-1">
            <stop stop-color="#ECF3FB" offset="0%"></stop>
            <stop stop-color="#FFFFFF" offset="100%"></stop>
        </linearGradient>
        <linearGradient x1="50.3956523%" y1="35.9331967%" x2="50%" y2="64.0668033%" id="linearGradient-2">
            <stop stop-color="#E3EFFD" stop-opacity="0.00575352382" offset="0%"></stop>
            <stop stop-color="#E5F0FD" offset="34.0601199%"></stop>
            <stop stop-color="#F0F6FE" offset="100%"></stop>
        </linearGradient>
        <linearGradient x1="33.3333333%" y1="34.495573%" x2="96.9740837%" y2="65.4421891%" id="linearGradient-3">
            <stop stop-color="#D5E6F9" offset="0%"></stop>
            <stop stop-color="#F7FBFF" stop-opacity="0" offset="100%"></stop>
        </linearGradient>
        <linearGradient x1="90.9912104%" y1="29.4309598%" x2="33.3333333%" y2="67.7472684%" id="linearGradient-4">
            <stop stop-color="#D5E6F9" offset="0%"></stop>
            <stop stop-color="#E7F0F9" stop-opacity="0" offset="100%"></stop>
        </linearGradient>
        <linearGradient x1="-5.8027489%" y1="27.0499439%" x2="103.630422%" y2="71.1332543%" id="linearGradient-5">
            <stop stop-color="#CEE6FE" offset="0%"></stop>
            <stop stop-color="#8AB5F2" offset="100%"></stop>
        </linearGradient>
        <linearGradient x1="-5.8027489%" y1="27.0499439%" x2="103.630422%" y2="71.1332543%" id="linearGradient-6">
            <stop stop-color="#BFD6F9" offset="0%"></stop>
            <stop stop-color="#F3F6FE" offset="100%"></stop>
        </linearGradient>
        <linearGradient x1="89.8473889%" y1="61.7348066%" x2="0%" y2="61.7348066%" id="linearGradient-7">
            <stop stop-color="#CAD9F3" offset="0%"></stop>
            <stop stop-color="#D5E3F7" offset="100%"></stop>
        </linearGradient>
        <filter x="-18.5%" y="-60.0%" width="136.9%" height="220.0%" filterUnits="objectBoundingBox" id="filter-8">
            <feGaussianBlur stdDeviation="4" in="SourceGraphic"></feGaussianBlur>
        </filter>
        <linearGradient x1="44.0988019%" y1="53.3827968%" x2="128.792906%" y2="41.384324%" id="linearGradient-9">
            <stop stop-color="#5073E5" offset="0%"></stop>
            <stop stop-color="#5E7CE0" offset="100%"></stop>
        </linearGradient>
        <linearGradient x1="44.0988019%" y1="53.3827968%" x2="128.792906%" y2="41.384324%" id="linearGradient-10">
            <stop stop-color="#5073E5" offset="0%"></stop>
            <stop stop-color="#5E7CE0" offset="100%"></stop>
        </linearGradient>
        <linearGradient x1="44.0988019%" y1="60.9602617%" x2="128.792906%" y2="22.0852098%" id="linearGradient-11">
            <stop stop-color="#5073E5" offset="0%"></stop>
            <stop stop-color="#5E7CE0" offset="100%"></stop>
        </linearGradient>
        <linearGradient x1="44.0988019%" y1="60.9602617%" x2="128.792906%" y2="22.0852098%" id="linearGradient-12">
            <stop stop-color="#5073E5" offset="0%"></stop>
            <stop stop-color="#5E7CE0" offset="100%"></stop>
        </linearGradient>
        <linearGradient x1="50%" y1="0%" x2="50%" y2="100%" id="linearGradient-13">
            <stop stop-color="#FFCC00" offset="0%"></stop>
            <stop stop-color="#FF9D00" offset="100%"></stop>
        </linearGradient>
        <path d="M42.1357013,44.1180593 C41.7874393,44.1180593 41.3045464,43.8010381 41.3045464,43.0860103 C41.3045464,42.3709825 41.7874393,41.8897247 42.1357013,41.8897247 L44.5695532,41.8897247 C45.6043061,41.8897247 46.0283578,43.08015 45.9985359,44.0523102 C45.9262965,45.6879804 45.5683099,47.2185756 44.9771813,48.6638513 L44.9507244,48.7165431 C44.2642953,50.3522133 43.2655078,51.8300857 42.0467913,53.0520307 C39.6062094,55.5023411 36.2327507,57 32.500935,57 C30.6712704,57 28.9269656,56.6453563 27.3337771,55.9687274 L27.2813572,55.9489409 C25.6485605,55.2656136 24.1671888,54.2736978 22.9517756,53.0519998 C20.5011913,50.6148083 19,47.2185756 19,43.4938753 C19,41.726898 19.3469647,39.9771125 20.0216016,38.3439636 L20.0511766,38.2782145 C20.7278812,36.6425134 21.7266069,35.1774822 22.9517756,33.955815 C24.1836434,32.7009647 25.6783825,31.709018 27.3337771,31.0259685 C28.9269656,30.3624277 30.6713013,30.0011473 32.500935,30.0011473 C34.3208443,30.0011473 36.0718173,30.3624277 37.6617025,31.0259685 L37.7208216,31.045755 C38.5781556,31.4070662 39.3959741,31.8601174 40.1547043,32.3792264 L40.089164,31.0783826 C40.0529208,30.5135579 40.4898151,30.0273544 41.0583457,30.0011473 C41.6101439,29.9749094 42.1059412,30.4017536 42.1357322,30.966887 L42.3392684,34.5468776 C42.3755116,34.8621644 42.2835144,35.177513 42.0467913,35.4075113 C41.8365251,35.6113025 41.5805381,35.722829 41.3045464,35.7030117 L37.7208216,35.9263425 C37.1589901,35.9461289 36.6696141,35.4994674 36.6398231,34.9477617 C36.610526,34.3893267 37.0474203,33.8967026 37.619038,33.8702178 L38.6075145,33.8111053 C38.0688058,33.476279 37.5072521,33.1740184 36.9323002,32.9376305 L36.8731812,32.9242955 C35.7071316,32.4316404 34.4390515,32.1425297 33.1120993,32.0769967 L31.8799845,32.0769967 C30.5628186,32.1425297 29.2852301,32.4316404 28.1256017,32.9242955 C27.84288,33.0294014 27.5735565,33.1542629 27.3108704,33.2989726 L26.2466352,33.903154 C25.5830202,34.3500316 24.9621006,34.8426866 24.4036032,35.4075113 C23.8420496,35.9592479 23.3393062,36.5965508 22.9090802,37.2533624 L22.2881297,38.2977849 C22.1635012,38.554268 22.0483503,38.8101955 21.9301122,39.0794889 L21.9104471,39.1255132 C21.434068,40.2950441 21.1450794,41.5562841 21.062961,42.8897555 L21.062961,44.1180902 C21.1581689,45.7537604 21.5818811,47.2974436 22.2881297,48.6900274 L22.9091111,49.7477232 C23.3393371,50.4112331 23.8420496,51.0288114 24.4036341,51.593636 C24.9621314,52.1651591 25.5895032,52.6708713 26.2466661,53.0979933 L27.3109013,53.7219612 C27.5571329,53.8401244 27.8200351,53.9519595 28.076269,54.0701535 L28.1256326,54.0832416 C29.2852609,54.5496587 30.5628495,54.8649764 31.8800154,54.9307872 L33.1121302,54.9307872 C34.7611344,54.8518575 36.298291,54.4183458 37.6812751,53.7088423 L38.745819,53.0979933 C39.4091253,52.6577832 40.036528,52.1651282 40.5916604,51.593636 C41.153461,51.0288114 41.6625947,50.4112331 42.105972,49.7477232 L42.7040159,48.6900274 C42.8353743,48.4273707 42.9535815,48.1842843 43.0620642,47.9216276 L43.0851561,47.875665 C43.5646532,46.7259206 43.8568833,45.4515616 43.9291228,44.1180593 L42.1357013,44.1180593 Z" id="path-14"></path>
        <filter x="-14.8%" y="-11.1%" width="129.6%" height="129.6%" filterUnits="objectBoundingBox" id="filter-15">
            <feMorphology radius="0.5" operator="dilate" in="SourceAlpha" result="shadowSpreadOuter1"></feMorphology>
            <feOffset dx="0" dy="1" in="shadowSpreadOuter1" result="shadowOffsetOuter1"></feOffset>
            <feGaussianBlur stdDeviation="1" in="shadowOffsetOuter1" result="shadowBlurOuter1"></feGaussianBlur>
            <feComposite in="shadowBlurOuter1" in2="SourceAlpha" operator="out" result="shadowBlurOuter1"></feComposite>
            <feColorMatrix values="0 0 0 0 0.661752894   0 0 0 0 0.324547702   0 0 0 0 0.00489962574  0 0 0 0.5 0" type="matrix" in="shadowBlurOuter1"></feColorMatrix>
        </filter>
    </defs>
    <g id="页面一" stroke="none" stroke-width="1" fill="none" fill-rule="evenodd">
        <g id="-TinyUI-ICON-1-【9-2】-无阴影" transform="translate(-1873.000000, -2137.000000)">
            <g id="DatetimeRange-日期时间范围" transform="translate(1873.000000, 2137.000000)">
                <g id="编组">
                    <g transform="translate(9.000000, 1.000000)" id="多边形">
                        <polygon fill="url(#linearGradient-1)" opacity="0.54620216" points="53.2605623 0 106.521125 30.75 53.2605623 62 0 30.75"></polygon>
                        <polygon fill="url(#linearGradient-2)" points="53.2605623 61.5 106.521125 86.75 53.2605623 118 0 86.75"></polygon>
                        <polygon fill="url(#linearGradient-3)" opacity="0.600606283" points="53.2605623 62 53.2605623 123 7.39138783e-15 92.25 0 30.75"></polygon>
                        <polygon fill="url(#linearGradient-4)" opacity="0.791265578" points="53.2605623 62 106.521125 30.75 106.521125 92.25 53.2605623 123"></polygon>
                        <polygon fill="url(#linearGradient-5)" points="53.2605623 118.007802 53.2605623 123 7.39138783e-15 92.25 0 86.9161706"></polygon>
                        <polygon fill="url(#linearGradient-6)" transform="translate(79.630281, 104.958085) scale(-1, 1) translate(-79.630281, -104.958085) " points="106.260562 118.007802 106.260562 123 53 92.25 53 86.9161706"></polygon>
                    </g>
                    <ellipse id="椭圆形" fill="url(#linearGradient-7)" filter="url(#filter-8)" cx="62.5" cy="90" rx="32.5" ry="10"></ellipse>
                </g>
                <g id="日期" transform="translate(29.000000, 29.000000)">
                    <path d="M44.7201937,6 L44.7201937,10.4382434 C44.7377782,12.5685947 46.473952,14.2822746 48.6002906,14.2680696 C50.7480871,14.2680695 52.4803874,12.5388838 52.4803874,10.4254346 L52.4803874,10.4254346 L52.4803874,6 L57.5302663,6 C62.2030024,6 66,9.75297346 66,14.3641354 L66,14.3641354 L66,20 L0.242905588,20 C0.161955714,19.9975373 0.0809498734,19.9975373 0,20 L0,20 L0,14.3641354 C0,9.75297346 3.79699765,6.00640437 8.4761259,6.01280875 L8.4761259,6.01280875 L12.6566586,6.01280875 L12.6566586,10.4382434 C12.674243,12.5685947 14.4104168,14.2822746 16.5367554,14.2680696 C18.6781599,14.2680695 20.4168524,12.5388838 20.4168524,10.4254346 L20.4168524,10.4254346 L20.4168524,6 L44.7201937,6 Z M16.5,0 C17.3284271,-1.52179594e-16 18,0.671572875 18,1.5 L18,9.5 C18,10.3284271 17.3284271,11 16.5,11 C15.6715729,11 15,10.3284271 15,9.5 L15,1.5 C15,0.671572875 15.6715729,1.52179594e-16 16.5,0 Z M48.5,0 C49.3284271,-1.52179594e-16 50,0.671572875 50,1.5 L50,9.5 C50,10.3284271 49.3284271,11 48.5,11 C47.6715729,11 47,10.3284271 47,9.5 L47,1.5 C47,0.671572875 47.6715729,1.52179594e-16 48.5,0 Z" id="形状" stroke="url(#linearGradient-10)" fill="url(#linearGradient-9)"></path>
                    <path d="M66,26.0060729 L0.242929116,26.0060729 L0,26 L0,54.0748988 C0,58.4473684 3.80375821,62 8.47055407,62 L57.5230531,62 C62.1962418,62 65.9936071,58.4412956 65.9936071,54.0748988 L65.9936071,26.0060729 L66,26.0060729 Z" id="形状备份" stroke="url(#linearGradient-12)" fill="url(#linearGradient-11)"></path>
                    <path d="M31.969697,44.8118586 C31.4118336,44.8118586 30.959596,44.3626118 30.959596,43.8084379 L30.959596,38.1666667 C30.959596,37.6124927 31.4118336,37.1632459 31.969697,37.1632459 C32.5275604,37.1632459 32.979798,37.6124927 32.979798,38.1666667 L32.979798,42.8050171 L36.7575758,42.8050171 C37.3153768,42.8051047 37.767517,43.2543258 37.767517,43.8084379 C37.767517,44.3625499 37.3153768,44.811771 36.7575758,44.8118586 L31.969697,44.8118586 Z" id="路径" stroke="#FFFFFF" fill="#FFFFFF" fill-rule="nonzero"></path>
                    <path d="M22.7272727,44.3352338 L21.010101,44.3352338 C20.4522376,44.3352338 20,43.885987 20,43.331813 C20,42.777639 20.4522376,42.3283923 21.010101,42.3283923 L22.7272727,42.3283923 C23.2851361,42.3283923 23.7373737,42.777639 23.7373737,43.331813 C23.7373737,43.885987 23.2851361,44.3352338 22.7272727,44.3352338 Z" id="路径" stroke="#FFB500" fill="#FFB500" fill-rule="nonzero"></path>
                    <path d="M32.5252525,56 C31.9673891,56 31.5151515,55.5507532 31.5151515,54.9965793 L31.5151515,53.1653364 C31.5151515,52.6111624 31.9673891,52.1619156 32.5252525,52.1619156 C33.0831159,52.1619156 33.5353535,52.6111624 33.5353535,53.1653364 L33.5353535,54.9965793 C33.5353535,55.5507532 33.0831159,56 32.5252525,56 L32.5252525,56 Z" id="路径" stroke="#FF9E00" fill="#FF9E00" fill-rule="nonzero"></path>
                    <g id="形状结合">
                        <use fill="black" fill-opacity="1" filter="url(#filter-15)" xlink:href="#path-14"></use>
                        <use stroke="url(#linearGradient-13)" stroke-width="1" fill="url(#linearGradient-13)" fill-rule="evenodd" xlink:href="#path-14"></use>
                    </g>
                </g>
            </g>
        </g>
    </g>
</svg>