<?xml version="1.0" encoding="UTF-8"?>
<svg width="125px" height="125px" viewBox="0 0 125 125" version="1.1" xmlns="http://www.w3.org/2000/svg" xmlns:xlink="http://www.w3.org/1999/xlink">
    <title>图标+文本链接 Iconaction</title>
    <defs>
        <linearGradient x1="50%" y1="45.9685271%" x2="50%" y2="100%" id="linearGradient-1">
            <stop stop-color="#ECF3FB" offset="0%"></stop>
            <stop stop-color="#FFFFFF" offset="100%"></stop>
        </linearGradient>
        <linearGradient x1="50.3956523%" y1="35.9331967%" x2="50%" y2="64.0668033%" id="linearGradient-2">
            <stop stop-color="#E3EFFD" stop-opacity="0.00575352382" offset="0%"></stop>
            <stop stop-color="#E5F0FD" offset="34.0601199%"></stop>
            <stop stop-color="#F0F6FE" offset="100%"></stop>
        </linearGradient>
        <linearGradient x1="33.3333333%" y1="34.495573%" x2="96.9740837%" y2="65.4421891%" id="linearGradient-3">
            <stop stop-color="#D5E6F9" offset="0%"></stop>
            <stop stop-color="#F7FBFF" stop-opacity="0" offset="100%"></stop>
        </linearGradient>
        <linearGradient x1="90.9912104%" y1="29.4309598%" x2="33.3333333%" y2="67.7472684%" id="linearGradient-4">
            <stop stop-color="#D5E6F9" offset="0%"></stop>
            <stop stop-color="#E7F0F9" stop-opacity="0" offset="100%"></stop>
        </linearGradient>
        <linearGradient x1="-5.8027489%" y1="27.0499439%" x2="103.630422%" y2="71.1332543%" id="linearGradient-5">
            <stop stop-color="#CEE6FE" offset="0%"></stop>
            <stop stop-color="#8AB5F2" offset="100%"></stop>
        </linearGradient>
        <linearGradient x1="-5.8027489%" y1="27.0499439%" x2="103.630422%" y2="71.1332543%" id="linearGradient-6">
            <stop stop-color="#BFD6F9" offset="0%"></stop>
            <stop stop-color="#F3F6FE" offset="100%"></stop>
        </linearGradient>
        <linearGradient x1="89.8473889%" y1="61.7348066%" x2="0%" y2="61.7348066%" id="linearGradient-7">
            <stop stop-color="#CAD9F3" offset="0%"></stop>
            <stop stop-color="#D5E3F7" offset="100%"></stop>
        </linearGradient>
        <filter x="-18.5%" y="-60.0%" width="136.9%" height="220.0%" filterUnits="objectBoundingBox" id="filter-8">
            <feGaussianBlur stdDeviation="4" in="SourceGraphic"></feGaussianBlur>
        </filter>
        <linearGradient x1="44.0988019%" y1="86.8386573%" x2="128.792906%" y2="-43.8247114%" id="linearGradient-9">
            <stop stop-color="#5073E5" offset="0%"></stop>
            <stop stop-color="#5E7CE0" offset="100%"></stop>
        </linearGradient>
        <linearGradient x1="44.0988019%" y1="86.8386573%" x2="128.792906%" y2="-43.8247114%" id="linearGradient-10">
            <stop stop-color="#5073E5" offset="0%"></stop>
            <stop stop-color="#5E7CE0" offset="100%"></stop>
        </linearGradient>
        <linearGradient x1="44.0988019%" y1="51.819193%" x2="128.792906%" y2="45.3666809%" id="linearGradient-11">
            <stop stop-color="#5073E5" offset="0%"></stop>
            <stop stop-color="#5E7CE0" offset="100%"></stop>
        </linearGradient>
    </defs>
    <g id="页面一" stroke="none" stroke-width="1" fill="none" fill-rule="evenodd">
        <g id="-TinyUI-ICON-2-【9-2】-无阴影备份" transform="translate(-1479.000000, -609.000000)">
            <g id="编组-25备份-7" transform="translate(1380.000000, 576.000000)">
                <g id="图标+文本链接-Iconaction" transform="translate(99.000000, 33.000000)">
                    <g id="背景" transform="translate(9.000000, 1.000000)">
                        <g id="编组">
                            <polygon id="多边形" fill="url(#linearGradient-1)" opacity="0.54620216" points="53.2605623 0 106.521125 30.75 53.2605623 62 0 30.75"></polygon>
                            <polygon id="多边形" fill="url(#linearGradient-2)" points="53.2605623 61.5 106.521125 86.75 53.2605623 118 0 86.75"></polygon>
                            <polygon id="多边形" fill="url(#linearGradient-3)" opacity="0.600606283" points="53.2605623 62 53.2605623 123 7.39138783e-15 92.25 0 30.75"></polygon>
                            <polygon id="多边形" fill="url(#linearGradient-4)" opacity="0.791265578" points="53.2605623 62 106.521125 30.75 106.521125 92.25 53.2605623 123"></polygon>
                            <polygon id="多边形" fill="url(#linearGradient-5)" points="53.2605623 118.007802 53.2605623 123 7.39138783e-15 92.25 0 86.9161706"></polygon>
                            <polygon id="多边形" fill="url(#linearGradient-6)" transform="translate(79.630281, 104.958085) scale(-1, 1) translate(-79.630281, -104.958085) " points="106.260562 118.007802 106.260562 123 53 92.25 53 86.9161706"></polygon>
                        </g>
                        <ellipse id="椭圆形" fill="url(#linearGradient-7)" filter="url(#filter-8)" cx="53.5" cy="89" rx="32.5" ry="10"></ellipse>
                    </g>
                    <g id="路径" transform="translate(32.900000, 34.000000)">
                        <path d="M22.4,25.2 L2.8,25.2 C1.2536027,25.2 0,23.9463973 0,22.4 L0,2.8 C0,1.2536027 1.2536027,0 2.8,0 L22.4,0 C23.1426062,0 23.8547971,0.294999153 24.379899,0.820101013 C24.9050008,1.34520287 25.2,2.05739383 25.2,2.8 L25.2,22.4 C25.2,23.1426062 24.9050008,23.8547971 24.379899,24.379899 C23.8547971,24.9050008 23.1426062,25.2 22.4,25.2 Z" stroke="url(#linearGradient-10)" fill="url(#linearGradient-9)"></path>
                        <path d="M22.4,56 L2.8,56 C1.2536027,56 0,54.7463973 0,53.2 L0,33.6 C0,32.8573938 0.294999153,32.1452029 0.820101013,31.620101 C1.34520287,31.0949992 2.05739383,30.8 2.8,30.8 L22.4,30.8 C23.1426062,30.8 23.8547971,31.0949992 24.379899,31.620101 C24.9050008,32.1452029 25.2,32.8573938 25.2,33.6 L25.2,53.2 C25.2,54.7463973 23.9463973,56 22.4,56 Z" stroke="url(#linearGradient-10)" fill="url(#linearGradient-9)"></path>
                        <path d="M56.1,8.5 L35.1,8.5 C33.4431458,8.5 32.1,7.15685425 32.1,5.5 C32.1,3.84314575 33.4431458,2.5 35.1,2.5 L56.1,2.5 C57.7568542,2.5 59.1,3.84314575 59.1,5.5 C59.1,7.15685425 57.7568542,8.5 56.1,8.5 L56.1,8.5 Z" fill="url(#linearGradient-11)" opacity="0.303770519"></path>
                        <path d="M56.1,20.5 L35.1,20.5 C33.4431458,20.5 32.1,19.1568542 32.1,17.5 C32.1,15.8431458 33.4431458,14.5 35.1,14.5 L56.1,14.5 C57.7568542,14.5 59.1,15.8431458 59.1,17.5 C59.1,19.1568542 57.7568542,20.5 56.1,20.5 L56.1,20.5 Z" fill="url(#linearGradient-11)" opacity="0.604724702"></path>
                        <path d="M56.1,41.5 L35.1,41.5 C33.4431458,41.5 32.1,40.1568542 32.1,38.5 C32.1,36.8431458 33.4431458,35.5 35.1,35.5 L56.1,35.5 C57.7568542,35.5 59.1,36.8431458 59.1,38.5 C59.1,40.1568542 57.7568542,41.5 56.1,41.5 L56.1,41.5 Z" fill="url(#linearGradient-11)" opacity="0.303770519"></path>
                        <path d="M56.1,53.5 L35.1,53.5 C33.4431458,53.5 32.1,52.1568542 32.1,50.5 C32.1,48.8431458 33.4431458,47.5 35.1,47.5 L56.1,47.5 C57.7568542,47.5 59.1,48.8431458 59.1,50.5 C59.1,52.1568542 57.7568542,53.5 56.1,53.5 L56.1,53.5 Z" fill="url(#linearGradient-11)" opacity="0.604724702"></path>
                    </g>
                </g>
            </g>
        </g>
    </g>
</svg>