<?xml version="1.0" encoding="UTF-8"?>
<svg width="125px" height="125px" viewBox="0 0 125 125" version="1.1" xmlns="http://www.w3.org/2000/svg" xmlns:xlink="http://www.w3.org/1999/xlink">
    <title>Leftmenu 左侧菜单</title>
    <defs>
        <linearGradient x1="50%" y1="45.9685271%" x2="50%" y2="100%" id="linearGradient-1">
            <stop stop-color="#ECF3FB" offset="0%"></stop>
            <stop stop-color="#FFFFFF" offset="100%"></stop>
        </linearGradient>
        <linearGradient x1="50.3956523%" y1="35.9331967%" x2="50%" y2="64.0668033%" id="linearGradient-2">
            <stop stop-color="#E3EFFD" stop-opacity="0.00575352382" offset="0%"></stop>
            <stop stop-color="#E5F0FD" offset="34.0601199%"></stop>
            <stop stop-color="#F0F6FE" offset="100%"></stop>
        </linearGradient>
        <linearGradient x1="33.3333333%" y1="34.495573%" x2="96.9740837%" y2="65.4421891%" id="linearGradient-3">
            <stop stop-color="#D5E6F9" offset="0%"></stop>
            <stop stop-color="#F7FBFF" stop-opacity="0" offset="100%"></stop>
        </linearGradient>
        <linearGradient x1="90.9912104%" y1="29.4309598%" x2="33.3333333%" y2="67.7472684%" id="linearGradient-4">
            <stop stop-color="#D5E6F9" offset="0%"></stop>
            <stop stop-color="#E7F0F9" stop-opacity="0" offset="100%"></stop>
        </linearGradient>
        <linearGradient x1="-5.8027489%" y1="27.0499439%" x2="103.630422%" y2="71.1332543%" id="linearGradient-5">
            <stop stop-color="#CEE6FE" offset="0%"></stop>
            <stop stop-color="#8AB5F2" offset="100%"></stop>
        </linearGradient>
        <linearGradient x1="-5.8027489%" y1="27.0499439%" x2="103.630422%" y2="71.1332543%" id="linearGradient-6">
            <stop stop-color="#BFD6F9" offset="0%"></stop>
            <stop stop-color="#F3F6FE" offset="100%"></stop>
        </linearGradient>
        <linearGradient x1="89.8473889%" y1="61.7348066%" x2="0%" y2="61.7348066%" id="linearGradient-7">
            <stop stop-color="#CAD9F3" offset="0%"></stop>
            <stop stop-color="#D5E3F7" offset="100%"></stop>
        </linearGradient>
        <filter x="-18.5%" y="-60.0%" width="136.9%" height="220.0%" filterUnits="objectBoundingBox" id="filter-8">
            <feGaussianBlur stdDeviation="4" in="SourceGraphic"></feGaussianBlur>
        </filter>
        <linearGradient x1="44.0988019%" y1="80.0535976%" x2="128.792906%" y2="-26.5437812%" id="linearGradient-9">
            <stop stop-color="#5073E5" offset="0%"></stop>
            <stop stop-color="#5E7CE0" offset="100%"></stop>
        </linearGradient>
        <linearGradient x1="48.9094055%" y1="86.8386573%" x2="64.5616387%" y2="-43.8247114%" id="linearGradient-10">
            <stop stop-color="#5073E5" offset="0%"></stop>
            <stop stop-color="#5E7CE0" offset="100%"></stop>
        </linearGradient>
        <linearGradient x1="48.9094055%" y1="86.8386573%" x2="64.5616387%" y2="-43.8247114%" id="linearGradient-11">
            <stop stop-color="#5073E5" offset="0%"></stop>
            <stop stop-color="#5E7CE0" offset="100%"></stop>
        </linearGradient>
        <path d="M29.842328,50.8021978 L42.2126984,50.8021978 C43.3172679,50.8021978 44.2126984,51.6976283 44.2126984,52.8021978 L44.2126984,53.4835165 C44.2126984,54.588086 43.3172679,55.4835165 42.2126984,55.4835165 L29.842328,55.4835165 C28.7377585,55.4835165 27.842328,54.588086 27.842328,53.4835165 L27.842328,52.8021978 C27.842328,51.6976283 28.7377585,50.8021978 29.842328,50.8021978 Z" id="path-12"></path>
        <filter x="-13.2%" y="-29.9%" width="124.4%" height="217.0%" filterUnits="objectBoundingBox" id="filter-13">
            <feOffset dx="0" dy="1" in="SourceAlpha" result="shadowOffsetOuter1"></feOffset>
            <feGaussianBlur stdDeviation="0.5" in="shadowOffsetOuter1" result="shadowBlurOuter1"></feGaussianBlur>
            <feColorMatrix values="0 0 0 0 0.232993057   0 0 0 0 0.361563365   0 0 0 0 0.790131058  0 0 0 1 0" type="matrix" in="shadowBlurOuter1"></feColorMatrix>
        </filter>
        <linearGradient x1="44.0988019%" y1="50.4643026%" x2="128.792906%" y2="48.8174634%" id="linearGradient-14">
            <stop stop-color="#5073E5" offset="0%"></stop>
            <stop stop-color="#5E7CE0" offset="100%"></stop>
        </linearGradient>
        <path d="M29.842328,41 L42.2126984,41 C43.3172679,41 44.2126984,41.8954305 44.2126984,43 L44.2126984,43.6813187 C44.2126984,44.7858882 43.3172679,45.6813187 42.2126984,45.6813187 L29.842328,45.6813187 C28.7377585,45.6813187 27.842328,44.7858882 27.842328,43.6813187 L27.842328,43 C27.842328,41.8954305 28.7377585,41 29.842328,41 Z" id="path-15"></path>
        <filter x="-13.2%" y="-25.0%" width="124.4%" height="217.0%" filterUnits="objectBoundingBox" id="filter-16">
            <feOffset dx="0" dy="1" in="SourceAlpha" result="shadowOffsetOuter1"></feOffset>
            <feGaussianBlur stdDeviation="0.5" in="shadowOffsetOuter1" result="shadowBlurOuter1"></feGaussianBlur>
            <feColorMatrix values="0 0 0 0 0.232993057   0 0 0 0 0.361563365   0 0 0 0 0.790131058  0 0 0 1 0" type="matrix" in="shadowBlurOuter1"></feColorMatrix>
        </filter>
        <linearGradient x1="44.0988019%" y1="51.6761326%" x2="128.792906%" y2="45.7310427%" id="linearGradient-17">
            <stop stop-color="#5073E5" offset="0%"></stop>
            <stop stop-color="#5E7CE0" offset="100%"></stop>
        </linearGradient>
        <linearGradient x1="44.0988019%" y1="51.6761326%" x2="128.792906%" y2="45.7310427%" id="linearGradient-18">
            <stop stop-color="#5073E5" offset="0%"></stop>
            <stop stop-color="#5E7CE0" offset="100%"></stop>
        </linearGradient>
        <path d="M29.814536,60.7199372 L42.0289981,60.7199372 C43.1335676,60.7199372 44.0289981,61.6153677 44.0289981,62.7199372 L44.0289981,63 C44.0289981,64.1045695 43.1335676,65 42.0289981,65 L29.814536,65 C28.7099665,65 27.814536,64.1045695 27.814536,63 L27.814536,62.7199372 C27.814536,61.6153677 28.7099665,60.7199372 29.814536,60.7199372 Z" id="path-19"></path>
        <filter x="-12.2%" y="-32.0%" width="123.5%" height="207.0%" filterUnits="objectBoundingBox" id="filter-20">
            <feOffset dx="0" dy="1" in="SourceAlpha" result="shadowOffsetOuter1"></feOffset>
            <feGaussianBlur stdDeviation="0.5" in="shadowOffsetOuter1" result="shadowBlurOuter1"></feGaussianBlur>
            <feColorMatrix values="0 0 0 0 0.232993057   0 0 0 0 0.361563365   0 0 0 0 0.790131058  0 0 0 1 0" type="matrix" in="shadowBlurOuter1"></feColorMatrix>
        </filter>
        <linearGradient x1="50%" y1="0%" x2="50%" y2="100%" id="linearGradient-21">
            <stop stop-color="#FFCC00" offset="0%"></stop>
            <stop stop-color="#FF9D00" offset="100%"></stop>
        </linearGradient>
        <polygon id="path-22" points="46.1111111 40 55.7407407 40 50.9259259 46"></polygon>
        <filter x="-36.3%" y="-41.7%" width="172.7%" height="216.7%" filterUnits="objectBoundingBox" id="filter-23">
            <feOffset dx="0" dy="1" in="SourceAlpha" result="shadowOffsetOuter1"></feOffset>
            <feMorphology radius="4" operator="erode" in="SourceAlpha" result="shadowInner"></feMorphology>
            <feOffset dx="0" dy="1" in="shadowInner" result="shadowInner"></feOffset>
            <feComposite in="shadowOffsetOuter1" in2="shadowInner" operator="out" result="shadowOffsetOuter1"></feComposite>
            <feGaussianBlur stdDeviation="1" in="shadowOffsetOuter1" result="shadowBlurOuter1"></feGaussianBlur>
            <feColorMatrix values="0 0 0 0 0.661752894   0 0 0 0 0.324547702   0 0 0 0 0.00489962574  0 0 0 0.5 0" type="matrix" in="shadowBlurOuter1"></feColorMatrix>
        </filter>
        <filter x="-57.1%" y="-75.0%" width="214.2%" height="283.3%" filterUnits="objectBoundingBox" id="filter-24">
            <feGaussianBlur stdDeviation="1.5" in="SourceAlpha" result="shadowBlurInner1"></feGaussianBlur>
            <feOffset dx="0" dy="-4" in="shadowBlurInner1" result="shadowOffsetInner1"></feOffset>
            <feComposite in="shadowOffsetInner1" in2="SourceAlpha" operator="arithmetic" k2="-1" k3="1" result="shadowInnerInner1"></feComposite>
            <feColorMatrix values="0 0 0 0 0.841553619   0 0 0 0 0.341832308   0 0 0 0 0  0 0 0 0.5 0" type="matrix" in="shadowInnerInner1"></feColorMatrix>
        </filter>
    </defs>
    <g id="页面一" stroke="none" stroke-width="1" fill="none" fill-rule="evenodd">
        <g id="-TinyUI-ICON-1-【9-2】-无阴影" transform="translate(-697.000000, -2967.000000)">
            <g id="Leftmenu-左侧菜单" transform="translate(697.000000, 2967.000000)">
                <g id="编组">
                    <g transform="translate(9.000000, 1.000000)" id="多边形">
                        <polygon fill="url(#linearGradient-1)" opacity="0.54620216" points="53.2605623 0 106.521125 30.75 53.2605623 62 0 30.75"></polygon>
                        <polygon fill="url(#linearGradient-2)" points="53.2605623 61.5 106.521125 86.75 53.2605623 118 0 86.75"></polygon>
                        <polygon fill="url(#linearGradient-3)" opacity="0.600606283" points="53.2605623 62 53.2605623 123 7.39138783e-15 92.25 0 30.75"></polygon>
                        <polygon fill="url(#linearGradient-4)" opacity="0.791265578" points="53.2605623 62 106.521125 30.75 106.521125 92.25 53.2605623 123"></polygon>
                        <polygon fill="url(#linearGradient-5)" points="53.2605623 118.007802 53.2605623 123 7.39138783e-15 92.25 0 86.9161706"></polygon>
                        <polygon fill="url(#linearGradient-6)" transform="translate(79.630281, 104.958085) scale(-1, 1) translate(-79.630281, -104.958085) " points="106.260562 118.007802 106.260562 123 53 92.25 53 86.9161706"></polygon>
                    </g>
                    <ellipse id="椭圆形" fill="url(#linearGradient-7)" filter="url(#filter-8)" cx="62.5" cy="90" rx="32.5" ry="10"></ellipse>
                </g>
                <path d="M42,33 L100,33 C101.104569,33 102,33.8954305 102,35 L102,87 C102,88.1045695 101.104569,89 100,89 L42,89 C40.8954305,89 40,88.1045695 40,87 L40,35 C40,33.8954305 40.8954305,33 42,33 Z" id="形状结合备份-6" fill="url(#linearGradient-9)" opacity="0.204287574"></path>
                <path d="M26,33 L48,33 L48,33 L48,89 L26,89 C24.8954305,89 24,88.1045695 24,87 L24,35 C24,33.8954305 24.8954305,33 26,33 Z" id="形状结合备份-31" stroke="url(#linearGradient-11)" fill="url(#linearGradient-10)"></path>
                <g id="形状结合备份-2" opacity="0.69720023" fill-rule="nonzero">
                    <use fill="black" fill-opacity="1" filter="url(#filter-13)" xlink:href="#path-12"></use>
                    <use fill="#FFFFFF" xlink:href="#path-12"></use>
                </g>
                <path d="M62.5925926,51 L94.2222222,51 C95.3267917,51 96.2222222,51.8954305 96.2222222,53 C96.2222222,54.1045695 95.3267917,55 94.2222222,55 L62.5925926,55 C61.4880231,55 60.5925926,54.1045695 60.5925926,53 C60.5925926,51.8954305 61.4880231,51 62.5925926,51 Z" id="形状结合备份-32" fill="url(#linearGradient-14)" opacity="0.303770519"></path>
                <g id="形状结合备份-30" fill-rule="nonzero">
                    <use fill="black" fill-opacity="1" filter="url(#filter-16)" xlink:href="#path-15"></use>
                    <use fill="#FFFFFF" xlink:href="#path-15"></use>
                </g>
                <path d="M62.5925926,41 L76.8888889,41 C77.9934584,41 78.8888889,41.8954305 78.8888889,43 C78.8888889,44.1045695 77.9934584,45 76.8888889,45 L62.5925926,45 C61.4880231,45 60.5925926,44.1045695 60.5925926,43 C60.5925926,41.8954305 61.4880231,41 62.5925926,41 Z" id="形状结合备份-33" stroke="url(#linearGradient-18)" fill="url(#linearGradient-17)"></path>
                <g id="形状结合备份-3" opacity="0.69720023" fill-rule="nonzero">
                    <use fill="black" fill-opacity="1" filter="url(#filter-20)" xlink:href="#path-19"></use>
                    <use fill="#FFFFFF" xlink:href="#path-19"></use>
                </g>
                <g id="形状结合备份-8" transform="translate(50.925926, 43.000000) rotate(-90.000000) translate(-50.925926, -43.000000) ">
                    <use fill="black" fill-opacity="1" filter="url(#filter-23)" xlink:href="#path-22"></use>
                    <use fill="black" fill-opacity="1" filter="url(#filter-24)" xlink:href="#path-22"></use>
                    <path stroke="url(#linearGradient-21)" stroke-width="4" d="M51.571465,42 L50.9259259,42.804441 L50.2803869,42 L51.571465,42 Z" stroke-linejoin="square"></path>
                </g>
            </g>
        </g>
    </g>
</svg>