<?xml version="1.0" encoding="UTF-8"?>
<svg width="125px" height="125px" viewBox="0 0 125 125" version="1.1" xmlns="http://www.w3.org/2000/svg" xmlns:xlink="http://www.w3.org/1999/xlink">
    <title>Leftmenuthin 左侧菜单</title>
    <defs>
        <linearGradient x1="50%" y1="45.9685271%" x2="50%" y2="100%" id="linearGradient-1">
            <stop stop-color="#ECF3FB" offset="0%"></stop>
            <stop stop-color="#FFFFFF" offset="100%"></stop>
        </linearGradient>
        <linearGradient x1="50.3956523%" y1="35.9331967%" x2="50%" y2="64.0668033%" id="linearGradient-2">
            <stop stop-color="#E3EFFD" stop-opacity="0.00575352382" offset="0%"></stop>
            <stop stop-color="#E5F0FD" offset="34.0601199%"></stop>
            <stop stop-color="#F0F6FE" offset="100%"></stop>
        </linearGradient>
        <linearGradient x1="33.3333333%" y1="34.495573%" x2="96.9740837%" y2="65.4421891%" id="linearGradient-3">
            <stop stop-color="#D5E6F9" offset="0%"></stop>
            <stop stop-color="#F7FBFF" stop-opacity="0" offset="100%"></stop>
        </linearGradient>
        <linearGradient x1="90.9912104%" y1="29.4309598%" x2="33.3333333%" y2="67.7472684%" id="linearGradient-4">
            <stop stop-color="#D5E6F9" offset="0%"></stop>
            <stop stop-color="#E7F0F9" stop-opacity="0" offset="100%"></stop>
        </linearGradient>
        <linearGradient x1="-5.8027489%" y1="27.0499439%" x2="103.630422%" y2="71.1332543%" id="linearGradient-5">
            <stop stop-color="#CEE6FE" offset="0%"></stop>
            <stop stop-color="#8AB5F2" offset="100%"></stop>
        </linearGradient>
        <linearGradient x1="-5.8027489%" y1="27.0499439%" x2="103.630422%" y2="71.1332543%" id="linearGradient-6">
            <stop stop-color="#BFD6F9" offset="0%"></stop>
            <stop stop-color="#F3F6FE" offset="100%"></stop>
        </linearGradient>
        <linearGradient x1="89.8473889%" y1="61.7348066%" x2="0%" y2="61.7348066%" id="linearGradient-7">
            <stop stop-color="#CAD9F3" offset="0%"></stop>
            <stop stop-color="#D5E3F7" offset="100%"></stop>
        </linearGradient>
        <filter x="-18.5%" y="-60.0%" width="136.9%" height="220.0%" filterUnits="objectBoundingBox" id="filter-8">
            <feGaussianBlur stdDeviation="4" in="SourceGraphic"></feGaussianBlur>
        </filter>
        <linearGradient x1="44.0988019%" y1="86.8386573%" x2="128.792906%" y2="-43.8247114%" id="linearGradient-9">
            <stop stop-color="#5073E5" offset="0%"></stop>
            <stop stop-color="#5E7CE0" offset="100%"></stop>
        </linearGradient>
        <linearGradient x1="49.0953512%" y1="86.8386573%" x2="62.0788879%" y2="-43.8247114%" id="linearGradient-10">
            <stop stop-color="#5073E5" offset="0%"></stop>
            <stop stop-color="#5E7CE0" offset="100%"></stop>
        </linearGradient>
        <linearGradient x1="49.0953512%" y1="86.8386573%" x2="62.0788879%" y2="-43.8247114%" id="linearGradient-11">
            <stop stop-color="#5073E5" offset="0%"></stop>
            <stop stop-color="#5E7CE0" offset="100%"></stop>
        </linearGradient>
        <path d="M6,14 L12,14 C12.5522847,14 13,14.4477153 13,15 C13,15.5522847 12.5522847,16 12,16 L6,16 C5.44771525,16 5,15.5522847 5,15 C5,14.4477153 5.44771525,14 6,14 Z" id="path-12"></path>
        <filter x="-25.0%" y="-50.0%" width="150.0%" height="300.0%" filterUnits="objectBoundingBox" id="filter-13">
            <feOffset dx="0" dy="1" in="SourceAlpha" result="shadowOffsetOuter1"></feOffset>
            <feGaussianBlur stdDeviation="0.5" in="shadowOffsetOuter1" result="shadowBlurOuter1"></feGaussianBlur>
            <feColorMatrix values="0 0 0 0 0.232993057   0 0 0 0 0.361563365   0 0 0 0 0.790131058  0 0 0 1 0" type="matrix" in="shadowBlurOuter1"></feColorMatrix>
        </filter>
        <path d="M6,32 L12,32 C12.5522847,32 13,32.4477153 13,33 C13,33.5522847 12.5522847,34 12,34 L6,34 C5.44771525,34 5,33.5522847 5,33 C5,32.4477153 5.44771525,32 6,32 Z" id="path-14"></path>
        <filter x="-25.0%" y="-50.0%" width="150.0%" height="300.0%" filterUnits="objectBoundingBox" id="filter-15">
            <feOffset dx="0" dy="1" in="SourceAlpha" result="shadowOffsetOuter1"></feOffset>
            <feGaussianBlur stdDeviation="0.5" in="shadowOffsetOuter1" result="shadowBlurOuter1"></feGaussianBlur>
            <feColorMatrix values="0 0 0 0 0.232993057   0 0 0 0 0.361563365   0 0 0 0 0.790131058  0 0 0 1 0" type="matrix" in="shadowBlurOuter1"></feColorMatrix>
        </filter>
        <path d="M6,50 L12,50 C12.5522847,50 13,50.4477153 13,51 C13,51.5522847 12.5522847,52 12,52 L6,52 C5.44771525,52 5,51.5522847 5,51 C5,50.4477153 5.44771525,50 6,50 Z" id="path-16"></path>
        <filter x="-25.0%" y="-50.0%" width="150.0%" height="300.0%" filterUnits="objectBoundingBox" id="filter-17">
            <feOffset dx="0" dy="1" in="SourceAlpha" result="shadowOffsetOuter1"></feOffset>
            <feGaussianBlur stdDeviation="0.5" in="shadowOffsetOuter1" result="shadowBlurOuter1"></feGaussianBlur>
            <feColorMatrix values="0 0 0 0 0.232993057   0 0 0 0 0.361563365   0 0 0 0 0.790131058  0 0 0 1 0" type="matrix" in="shadowBlurOuter1"></feColorMatrix>
        </filter>
        <linearGradient x1="44.0988019%" y1="50.7008544%" x2="128.792906%" y2="48.2149877%" id="linearGradient-18">
            <stop stop-color="#5073E5" offset="0%"></stop>
            <stop stop-color="#5E7CE0" offset="100%"></stop>
        </linearGradient>
        <path d="M7,4 L11,4 C12.1045695,4 13,4.8954305 13,6 L13,10 C13,11.1045695 12.1045695,12 11,12 L7,12 C5.8954305,12 5,11.1045695 5,10 L5,6 C5,4.8954305 5.8954305,4 7,4 Z" id="path-19"></path>
        <filter x="-25.0%" y="-12.5%" width="150.0%" height="150.0%" filterUnits="objectBoundingBox" id="filter-20">
            <feOffset dx="0" dy="1" in="SourceAlpha" result="shadowOffsetOuter1"></feOffset>
            <feGaussianBlur stdDeviation="0.5" in="shadowOffsetOuter1" result="shadowBlurOuter1"></feGaussianBlur>
            <feColorMatrix values="0 0 0 0 0.232993057   0 0 0 0 0.361563365   0 0 0 0 0.790131058  0 0 0 1 0" type="matrix" in="shadowBlurOuter1"></feColorMatrix>
        </filter>
        <path d="M7,22 L11,22 C12.1045695,22 13,22.8954305 13,24 L13,28 C13,29.1045695 12.1045695,30 11,30 L7,30 C5.8954305,30 5,29.1045695 5,28 L5,24 C5,22.8954305 5.8954305,22 7,22 Z" id="path-21"></path>
        <filter x="-25.0%" y="-12.5%" width="150.0%" height="150.0%" filterUnits="objectBoundingBox" id="filter-22">
            <feOffset dx="0" dy="1" in="SourceAlpha" result="shadowOffsetOuter1"></feOffset>
            <feGaussianBlur stdDeviation="0.5" in="shadowOffsetOuter1" result="shadowBlurOuter1"></feGaussianBlur>
            <feColorMatrix values="0 0 0 0 0.232993057   0 0 0 0 0.361563365   0 0 0 0 0.790131058  0 0 0 1 0" type="matrix" in="shadowBlurOuter1"></feColorMatrix>
        </filter>
        <path d="M7,40 L11,40 C12.1045695,40 13,40.8954305 13,42 L13,46 C13,47.1045695 12.1045695,48 11,48 L7,48 C5.8954305,48 5,47.1045695 5,46 L5,42 C5,40.8954305 5.8954305,40 7,40 Z" id="path-23"></path>
        <filter x="-25.0%" y="-12.5%" width="150.0%" height="150.0%" filterUnits="objectBoundingBox" id="filter-24">
            <feOffset dx="0" dy="1" in="SourceAlpha" result="shadowOffsetOuter1"></feOffset>
            <feGaussianBlur stdDeviation="0.5" in="shadowOffsetOuter1" result="shadowBlurOuter1"></feGaussianBlur>
            <feColorMatrix values="0 0 0 0 0.232993057   0 0 0 0 0.361563365   0 0 0 0 0.790131058  0 0 0 1 0" type="matrix" in="shadowBlurOuter1"></feColorMatrix>
        </filter>
        <linearGradient x1="44.0988019%" y1="52.5300842%" x2="128.792906%" y2="43.5561054%" id="linearGradient-25">
            <stop stop-color="#5073E5" offset="0%"></stop>
            <stop stop-color="#5E7CE0" offset="100%"></stop>
        </linearGradient>
        <linearGradient x1="44.0988019%" y1="52.5300842%" x2="128.792906%" y2="43.5561054%" id="linearGradient-26">
            <stop stop-color="#5073E5" offset="0%"></stop>
            <stop stop-color="#5E7CE0" offset="100%"></stop>
        </linearGradient>
    </defs>
    <g id="页面一" stroke="none" stroke-width="1" fill="none" fill-rule="evenodd">
        <g id="-TinyUI-ICON-2-【9-2】-无阴影备份" transform="translate(-696.000000, -884.000000)">
            <g id="编组-25备份-9" transform="translate(598.000000, 851.000000)">
                <g id="Leftmenu-左侧菜单" transform="translate(98.000000, 33.000000)">
                    <g id="背景" transform="translate(9.000000, 1.000000)">
                        <g id="编组">
                            <polygon id="多边形" fill="url(#linearGradient-1)" opacity="0.54620216" points="53.2605623 0 106.521125 30.75 53.2605623 62 0 30.75"></polygon>
                            <polygon id="多边形" fill="url(#linearGradient-2)" points="53.2605623 61.5 106.521125 86.75 53.2605623 118 0 86.75"></polygon>
                            <polygon id="多边形" fill="url(#linearGradient-3)" opacity="0.600606283" points="53.2605623 62 53.2605623 123 7.39138783e-15 92.25 0 30.75"></polygon>
                            <polygon id="多边形" fill="url(#linearGradient-4)" opacity="0.791265578" points="53.2605623 62 106.521125 30.75 106.521125 92.25 53.2605623 123"></polygon>
                            <polygon id="多边形" fill="url(#linearGradient-5)" points="53.2605623 118.007802 53.2605623 123 7.39138783e-15 92.25 0 86.9161706"></polygon>
                            <polygon id="多边形" fill="url(#linearGradient-6)" transform="translate(79.630281, 104.958085) scale(-1, 1) translate(-79.630281, -104.958085) " points="106.260562 118.007802 106.260562 123 53 92.25 53 86.9161706"></polygon>
                        </g>
                        <ellipse id="椭圆形" fill="url(#linearGradient-7)" filter="url(#filter-8)" cx="53.5" cy="89" rx="32.5" ry="10"></ellipse>
                    </g>
                    <g id="编组-7" transform="translate(29.000000, 33.000000)">
                        <path d="M16,0 L64,0 C66.209139,3.07431771e-15 68,1.790861 68,4 L68,52 C68,54.209139 66.209139,56 64,56 L16,56 C13.790861,56 12,54.209139 12,52 L12,4 C12,1.790861 13.790861,-3.82769592e-17 16,0 Z" id="形状结合备份-6" fill="url(#linearGradient-9)" opacity="0.204287574"></path>
                        <path d="M18,0 L18,5.85 L21.9259259,9 L18,12.149 L18,56 L2,56 C0.8954305,56 1.3527075e-16,55.1045695 0,54 L0,2 C-1.3527075e-16,0.8954305 0.8954305,2.02906125e-16 2,0 L18,0 Z" id="形状结合" stroke="url(#linearGradient-11)" fill="url(#linearGradient-10)"></path>
                        <g id="形状结合备份-2" fill-rule="nonzero">
                            <use fill="black" fill-opacity="1" filter="url(#filter-13)" xlink:href="#path-12"></use>
                            <use fill="#FFFFFF" xlink:href="#path-12"></use>
                        </g>
                        <g id="形状结合备份-11" opacity="0.69720023" fill-rule="nonzero">
                            <use fill="black" fill-opacity="1" filter="url(#filter-15)" xlink:href="#path-14"></use>
                            <use fill="#FFFFFF" xlink:href="#path-14"></use>
                        </g>
                        <g id="形状结合备份-12" opacity="0.69720023" fill-rule="nonzero">
                            <use fill="black" fill-opacity="1" filter="url(#filter-17)" xlink:href="#path-16"></use>
                            <use fill="#FFFFFF" xlink:href="#path-16"></use>
                        </g>
                        <path d="M31,17 L56,17 C57.1045695,17 58,17.8954305 58,19 C58,20.1045695 57.1045695,21 56,21 L31,21 C29.8954305,21 29,20.1045695 29,19 C29,17.8954305 29.8954305,17 31,17 Z" id="形状结合备份-32" fill="url(#linearGradient-18)" opacity="0.303770519"></path>
                        <path d="M31,37 L56,37 C57.1045695,37 58,37.8954305 58,39 C58,40.1045695 57.1045695,41 56,41 L31,41 C29.8954305,41 29,40.1045695 29,39 C29,37.8954305 29.8954305,37 31,37 Z" id="形状结合备份-47" fill="url(#linearGradient-18)" opacity="0.303770519"></path>
                        <g id="形状结合备份-30" fill-rule="nonzero">
                            <use fill="black" fill-opacity="1" filter="url(#filter-20)" xlink:href="#path-19"></use>
                            <use fill="#FFFFFF" xlink:href="#path-19"></use>
                        </g>
                        <g id="形状结合备份-34" opacity="0.69720023" fill-rule="nonzero">
                            <use fill="black" fill-opacity="1" filter="url(#filter-22)" xlink:href="#path-21"></use>
                            <use fill="#FFFFFF" xlink:href="#path-21"></use>
                        </g>
                        <g id="形状结合备份-45" opacity="0.69720023" fill-rule="nonzero">
                            <use fill="black" fill-opacity="1" filter="url(#filter-24)" xlink:href="#path-23"></use>
                            <use fill="#FFFFFF" xlink:href="#path-23"></use>
                        </g>
                        <path d="M31,7 L41,7 C42.1045695,7 43,7.8954305 43,9 C43,10.1045695 42.1045695,11 41,11 L31,11 C29.8954305,11 29,10.1045695 29,9 C29,7.8954305 29.8954305,7 31,7 Z" id="形状结合备份-33" stroke="url(#linearGradient-26)" fill="url(#linearGradient-25)"></path>
                        <path d="M31,27 L41,27 C42.1045695,27 43,27.8954305 43,29 C43,30.1045695 42.1045695,31 41,31 L31,31 C29.8954305,31 29,30.1045695 29,29 C29,27.8954305 29.8954305,27 31,27 Z" id="形状结合备份-46" stroke="url(#linearGradient-26)" fill="url(#linearGradient-25)"></path>
                    </g>
                </g>
            </g>
        </g>
    </g>
</svg>