<?xml version="1.0" encoding="UTF-8"?>
<svg width="125px" height="125px" viewBox="0 0 125 125" version="1.1" xmlns="http://www.w3.org/2000/svg" xmlns:xlink="http://www.w3.org/1999/xlink">
    <title>链接按钮 Linkbutton</title>
    <defs>
        <linearGradient x1="50%" y1="45.9685271%" x2="50%" y2="100%" id="linearGradient-1">
            <stop stop-color="#ECF3FB" offset="0%"></stop>
            <stop stop-color="#FFFFFF" offset="100%"></stop>
        </linearGradient>
        <linearGradient x1="50.3956523%" y1="35.9331967%" x2="50%" y2="64.0668033%" id="linearGradient-2">
            <stop stop-color="#E3EFFD" stop-opacity="0.00575352382" offset="0%"></stop>
            <stop stop-color="#E5F0FD" offset="34.0601199%"></stop>
            <stop stop-color="#F0F6FE" offset="100%"></stop>
        </linearGradient>
        <linearGradient x1="33.3333333%" y1="34.495573%" x2="96.9740837%" y2="65.4421891%" id="linearGradient-3">
            <stop stop-color="#D5E6F9" offset="0%"></stop>
            <stop stop-color="#F7FBFF" stop-opacity="0" offset="100%"></stop>
        </linearGradient>
        <linearGradient x1="90.9912104%" y1="29.4309598%" x2="33.3333333%" y2="67.7472684%" id="linearGradient-4">
            <stop stop-color="#D5E6F9" offset="0%"></stop>
            <stop stop-color="#E7F0F9" stop-opacity="0" offset="100%"></stop>
        </linearGradient>
        <linearGradient x1="-5.8027489%" y1="27.0499439%" x2="103.630422%" y2="71.1332543%" id="linearGradient-5">
            <stop stop-color="#CEE6FE" offset="0%"></stop>
            <stop stop-color="#8AB5F2" offset="100%"></stop>
        </linearGradient>
        <linearGradient x1="-5.8027489%" y1="27.0499439%" x2="103.630422%" y2="71.1332543%" id="linearGradient-6">
            <stop stop-color="#BFD6F9" offset="0%"></stop>
            <stop stop-color="#F3F6FE" offset="100%"></stop>
        </linearGradient>
        <linearGradient x1="89.8473889%" y1="61.7348066%" x2="0%" y2="61.7348066%" id="linearGradient-7">
            <stop stop-color="#CAD9F3" offset="0%"></stop>
            <stop stop-color="#D5E3F7" offset="100%"></stop>
        </linearGradient>
        <filter x="-18.5%" y="-60.0%" width="136.9%" height="220.0%" filterUnits="objectBoundingBox" id="filter-8">
            <feGaussianBlur stdDeviation="4" in="SourceGraphic"></feGaussianBlur>
        </filter>
        <linearGradient x1="44.0988019%" y1="54.0931841%" x2="128.792906%" y2="39.5750321%" id="linearGradient-9">
            <stop stop-color="#5073E5" offset="0%"></stop>
            <stop stop-color="#5E7CE0" offset="100%"></stop>
        </linearGradient>
        <text id="text-10" font-family="PingFangSC-Semibold, PingFang SC" font-size="12" font-weight="500" letter-spacing="0.571428571">
            <tspan x="36.2237143" y="67">Button</tspan>
        </text>
        <filter x="-6.0%" y="-20.6%" width="116.7%" height="141.2%" filterUnits="objectBoundingBox" id="filter-11">
            <feOffset dx="1" dy="0" in="SourceAlpha" result="shadowOffsetOuter1"></feOffset>
            <feGaussianBlur stdDeviation="1" in="shadowOffsetOuter1" result="shadowBlurOuter1"></feGaussianBlur>
            <feColorMatrix values="0 0 0 0 0.113026947   0 0 0 0 0.233917621   0 0 0 0 0.627675817  0 0 0 0.41731657 0" type="matrix" in="shadowBlurOuter1"></feColorMatrix>
        </filter>
        <path d="M82.1054224,63.8358687 C83.118265,64.8485299 83.118265,66.3657326 82.1054224,67.3783938 C81.0925797,68.391055 79.3343705,68.6415366 78.3250943,67.6288754 C76.5100208,65.8222248 75.4890987,63.3631555 75.4890987,60.7978849 C75.4890987,58.2326143 76.5100208,55.7735451 78.3250943,53.9668945 L88.4178571,43.8474388 C92.1981852,40.0508537 98.2502765,40.0508537 102.034171,43.8474388 C105.818066,47.6440239 106.06771,53.4623531 102.283815,57.2553598 L99.2595528,60.2933435 C98.2502765,61.3060047 96.7381453,61.3060047 95.4792247,60.0392836 C94.2203041,58.7725625 94.4699484,57.5094196 95.4792247,56.4967584 L98.5034872,53.462353 C100.268829,51.6910904 100.015618,48.9071666 98.5034872,47.3863856 C96.991356,45.8656046 93.9599607,45.3646415 92.1981852,47.1394824 L82.1089887,57.2553598 C80.3430558,59.0910478 80.3430558,62.0001806 82.1089887,63.8358687 L82.1054224,63.8358687 Z M85.8928832,60.0392836 C84.8836069,59.0266224 84.8836069,57.5094196 86.1425275,56.2462769 C87.401448,54.9831341 88.663935,55.2336156 89.6732113,56.2462769 C91.4882847,58.0529275 92.5092068,60.5119967 92.5092068,63.0772673 C92.5092068,65.6425379 91.4882847,68.1016071 89.6732113,69.9082577 L79.5875812,80.0241352 C75.8072531,83.8171419 69.4983847,84.0747801 65.7144902,80.2746167 C61.9305957,76.4744534 62.1838064,70.155161 65.9677009,66.3621543 L68.9955297,63.3241706 C70.004806,62.3115093 71.7701479,62.0610277 72.7758579,63.073689 C73.7815678,64.0863503 73.5354898,65.8540345 72.5262136,66.8666957 L69.4983847,69.9046794 C67.7330428,71.675942 67.7330428,74.7103474 69.4983847,76.48161 C71.2637266,78.2528726 74.0383448,77.9988127 75.8036867,76.2311284 L85.8928832,66.1080944 C87.6546588,64.3368318 87.6546588,61.8069678 85.8928832,60.0357053 L85.8928832,60.0392836 Z" id="path-12"></path>
        <filter x="-9.5%" y="-4.8%" width="119.0%" height="119.0%" filterUnits="objectBoundingBox" id="filter-13">
            <feOffset dx="0" dy="2" in="SourceAlpha" result="shadowOffsetOuter1"></feOffset>
            <feGaussianBlur stdDeviation="1" in="shadowOffsetOuter1" result="shadowBlurOuter1"></feGaussianBlur>
            <feColorMatrix values="0 0 0 0 0.368627451   0 0 0 0 0.48627451   0 0 0 0 0.878431373  0 0 0 0.349865467 0" type="matrix" in="shadowBlurOuter1"></feColorMatrix>
        </filter>
    </defs>
    <g id="页面一" stroke="none" stroke-width="1" fill="none" fill-rule="evenodd">
        <g id="-TinyUI-ICON-2-【9-2】-无阴影备份" transform="translate(-1087.000000, -884.000000)">
            <g id="编组-25备份-10" transform="translate(989.000000, 851.000000)">
                <g id="链接按钮-Linkbutton" transform="translate(98.000000, 33.000000)">
                    <g id="背景" transform="translate(9.000000, 1.000000)">
                        <g id="编组">
                            <polygon id="多边形" fill="url(#linearGradient-1)" opacity="0.54620216" points="53.2605623 0 106.521125 30.75 53.2605623 62 0 30.75"></polygon>
                            <polygon id="多边形" fill="url(#linearGradient-2)" points="53.2605623 61.5 106.521125 86.75 53.2605623 118 0 86.75"></polygon>
                            <polygon id="多边形" fill="url(#linearGradient-3)" opacity="0.600606283" points="53.2605623 62 53.2605623 123 7.39138783e-15 92.25 0 30.75"></polygon>
                            <polygon id="多边形" fill="url(#linearGradient-4)" opacity="0.791265578" points="53.2605623 62 106.521125 30.75 106.521125 92.25 53.2605623 123"></polygon>
                            <polygon id="多边形" fill="url(#linearGradient-5)" points="53.2605623 118.007802 53.2605623 123 7.39138783e-15 92.25 0 86.9161706"></polygon>
                            <polygon id="多边形" fill="url(#linearGradient-6)" transform="translate(79.630281, 104.958085) scale(-1, 1) translate(-79.630281, -104.958085) " points="106.260562 118.007802 106.260562 123 53 92.25 53 86.9161706"></polygon>
                        </g>
                        <ellipse id="椭圆形" fill="url(#linearGradient-7)" filter="url(#filter-8)" cx="53.5" cy="89" rx="32.5" ry="10"></ellipse>
                    </g>
                    <rect id="矩形" fill="url(#linearGradient-9)" opacity="0.204287574" x="28" y="38" width="72" height="24" rx="4"></rect>
                    <rect id="矩形备份-12" fill="#ACBFF1" x="21" y="50" width="72" height="24" rx="4"></rect>
                    <g id="Button" fill-rule="nonzero" fill="#FFFFFF">
                        <use fill-opacity="1" filter="url(#filter-11)" xlink:href="#text-10"></use>
                        <use xlink:href="#text-10"></use>
                        <use fill-opacity="1" xlink:href="#text-10"></use>
                    </g>
                    <g id="形状">
                        <use fill="black" fill-opacity="1" filter="url(#filter-13)" xlink:href="#path-12"></use>
                        <use fill="#5073E5" fill-rule="evenodd" xlink:href="#path-12"></use>
                    </g>
                </g>
            </g>
        </g>
    </g>
</svg>