<?xml version="1.0" encoding="UTF-8"?>
<svg width="125px" height="125px" viewBox="0 0 125 125" version="1.1" xmlns="http://www.w3.org/2000/svg" xmlns:xlink="http://www.w3.org/1999/xlink">
    <title>Message 消息弹框</title>
    <defs>
        <linearGradient x1="50%" y1="45.9685271%" x2="50%" y2="100%" id="linearGradient-1">
            <stop stop-color="#ECF3FB" offset="0%"></stop>
            <stop stop-color="#FFFFFF" offset="100%"></stop>
        </linearGradient>
        <linearGradient x1="50.3956523%" y1="35.9331967%" x2="50%" y2="64.0668033%" id="linearGradient-2">
            <stop stop-color="#E3EFFD" stop-opacity="0.00575352382" offset="0%"></stop>
            <stop stop-color="#E5F0FD" offset="34.0601199%"></stop>
            <stop stop-color="#F0F6FE" offset="100%"></stop>
        </linearGradient>
        <linearGradient x1="33.3333333%" y1="34.495573%" x2="96.9740837%" y2="65.4421891%" id="linearGradient-3">
            <stop stop-color="#D5E6F9" offset="0%"></stop>
            <stop stop-color="#F7FBFF" stop-opacity="0" offset="100%"></stop>
        </linearGradient>
        <linearGradient x1="90.9912104%" y1="29.4309598%" x2="33.3333333%" y2="67.7472684%" id="linearGradient-4">
            <stop stop-color="#D5E6F9" offset="0%"></stop>
            <stop stop-color="#E7F0F9" stop-opacity="0" offset="100%"></stop>
        </linearGradient>
        <linearGradient x1="-5.8027489%" y1="27.0499439%" x2="103.630422%" y2="71.1332543%" id="linearGradient-5">
            <stop stop-color="#CEE6FE" offset="0%"></stop>
            <stop stop-color="#8AB5F2" offset="100%"></stop>
        </linearGradient>
        <linearGradient x1="-5.8027489%" y1="27.0499439%" x2="103.630422%" y2="71.1332543%" id="linearGradient-6">
            <stop stop-color="#BFD6F9" offset="0%"></stop>
            <stop stop-color="#F3F6FE" offset="100%"></stop>
        </linearGradient>
        <linearGradient x1="89.8473889%" y1="61.7348066%" x2="0%" y2="61.7348066%" id="linearGradient-7">
            <stop stop-color="#CAD9F3" offset="0%"></stop>
            <stop stop-color="#D5E3F7" offset="100%"></stop>
        </linearGradient>
        <filter x="-18.5%" y="-60.0%" width="136.9%" height="220.0%" filterUnits="objectBoundingBox" id="filter-8">
            <feGaussianBlur stdDeviation="4" in="SourceGraphic"></feGaussianBlur>
        </filter>
        <linearGradient x1="44.0988019%" y1="68.3555939%" x2="128.792906%" y2="3.24997077%" id="linearGradient-9">
            <stop stop-color="#5073E5" offset="0%"></stop>
            <stop stop-color="#5E7CE0" offset="100%"></stop>
        </linearGradient>
        <linearGradient x1="44.0988019%" y1="68.3555939%" x2="128.792906%" y2="3.24997077%" id="linearGradient-10">
            <stop stop-color="#5073E5" offset="0%"></stop>
            <stop stop-color="#5E7CE0" offset="100%"></stop>
        </linearGradient>
        <rect id="path-11" x="35" y="34" width="68" height="48" rx="4"></rect>
        <filter x="-6.6%" y="-5.2%" width="113.2%" height="118.8%" filterUnits="objectBoundingBox" id="filter-12">
            <feMorphology radius="0.5" operator="dilate" in="SourceAlpha" result="shadowSpreadOuter1"></feMorphology>
            <feOffset dx="0" dy="2" in="shadowSpreadOuter1" result="shadowOffsetOuter1"></feOffset>
            <feGaussianBlur stdDeviation="1" in="shadowOffsetOuter1" result="shadowBlurOuter1"></feGaussianBlur>
            <feComposite in="shadowBlurOuter1" in2="SourceAlpha" operator="out" result="shadowBlurOuter1"></feComposite>
            <feColorMatrix values="0 0 0 0 0.368627451   0 0 0 0 0.48627451   0 0 0 0 0.878431373  0 0 0 0.65213034 0" type="matrix" in="shadowBlurOuter1"></feColorMatrix>
        </filter>
        <path d="M94.5330808,37.4497475 L94.5327475,40.3657475 L97.4497475,40.3664141 L97.4497475,41.5330808 L94.5327475,41.5327475 L94.5330808,44.4497475 L93.3664141,44.4497475 L93.3657475,41.5327475 L90.4497475,41.5330808 L90.4497475,40.3664141 L93.3657475,40.3657475 L93.3664141,37.4497475 L94.5330808,37.4497475 Z" id="path-13"></path>
        <filter x="-28.6%" y="-28.6%" width="157.1%" height="157.1%" filterUnits="objectBoundingBox" id="filter-14">
            <feMorphology radius="0.5" operator="dilate" in="SourceAlpha" result="shadowSpreadOuter1"></feMorphology>
            <feOffset dx="0" dy="0" in="shadowSpreadOuter1" result="shadowOffsetOuter1"></feOffset>
            <feGaussianBlur stdDeviation="0.5" in="shadowOffsetOuter1" result="shadowBlurOuter1"></feGaussianBlur>
            <feComposite in="shadowBlurOuter1" in2="SourceAlpha" operator="out" result="shadowBlurOuter1"></feComposite>
            <feColorMatrix values="0 0 0 0 0.232993057   0 0 0 0 0.361563365   0 0 0 0 0.790131058  0 0 0 1 0" type="matrix" in="shadowBlurOuter1"></feColorMatrix>
        </filter>
        <linearGradient x1="44.0988019%" y1="59.6880098%" x2="128.792906%" y2="25.3255197%" id="linearGradient-15">
            <stop stop-color="#5073E5" offset="0%"></stop>
            <stop stop-color="#5E7CE0" offset="100%"></stop>
        </linearGradient>
        <linearGradient x1="44.0988019%" y1="57.7386763%" x2="128.792906%" y2="30.290295%" id="linearGradient-16">
            <stop stop-color="#5073E5" offset="0%"></stop>
            <stop stop-color="#5E7CE0" offset="100%"></stop>
        </linearGradient>
    </defs>
    <g id="页面一" stroke="none" stroke-width="1" fill="none" fill-rule="evenodd">
        <g id="-TinyUI-ICON-2-【9-2】-无阴影" transform="translate(-1089.000000, -574.000000)">
            <g id="Message-消息弹框" transform="translate(1089.000000, 574.000000)">
                <g id="编组">
                    <g transform="translate(9.000000, 1.000000)" id="多边形">
                        <polygon fill="url(#linearGradient-1)" opacity="0.54620216" points="53.2605623 0 106.521125 30.75 53.2605623 62 0 30.75"></polygon>
                        <polygon fill="url(#linearGradient-2)" points="53.2605623 61.5 106.521125 86.75 53.2605623 118 0 86.75"></polygon>
                        <polygon fill="url(#linearGradient-3)" opacity="0.600606283" points="53.2605623 62 53.2605623 123 7.39138783e-15 92.25 0 30.75"></polygon>
                        <polygon fill="url(#linearGradient-4)" opacity="0.791265578" points="53.2605623 62 106.521125 30.75 106.521125 92.25 53.2605623 123"></polygon>
                        <polygon fill="url(#linearGradient-5)" points="53.2605623 118.007802 53.2605623 123 7.39138783e-15 92.25 0 86.9161706"></polygon>
                        <polygon fill="url(#linearGradient-6)" transform="translate(79.630281, 104.958085) scale(-1, 1) translate(-79.630281, -104.958085) " points="106.260562 118.007802 106.260562 123 53 92.25 53 86.9161706"></polygon>
                    </g>
                    <ellipse id="椭圆形" fill="url(#linearGradient-7)" filter="url(#filter-8)" cx="62.5" cy="90" rx="32.5" ry="10"></ellipse>
                </g>
                <path d="M24,43 L34.6408785,43 L34.6408785,43 L84,43 C86.209139,43 88,44.790861 88,47 L88,87 C88,89.209139 86.209139,91 84,91 L24,91 C21.790861,91 20,89.209139 20,87 L20,47 C20,44.790861 21.790861,43 24,43 Z" id="矩形" fill="url(#linearGradient-9)" opacity="0.204287574"></path>
                <g id="形状结合">
                    <use fill="black" fill-opacity="1" filter="url(#filter-12)" xlink:href="#path-11"></use>
                    <use stroke="url(#linearGradient-9)" stroke-width="1" fill="url(#linearGradient-10)" fill-rule="evenodd" xlink:href="#path-11"></use>
                </g>
                <g id="形状结合" fill-rule="nonzero" transform="translate(93.949747, 40.949747) rotate(-315.000000) translate(-93.949747, -40.949747) ">
                    <use fill="black" fill-opacity="1" filter="url(#filter-14)" xlink:href="#path-13"></use>
                    <use stroke="#FFFFFF" stroke-width="1" fill="#FFFFFF" xlink:href="#path-13"></use>
                </g>
                <rect id="形状结合备份-34" fill="url(#linearGradient-15)" opacity="0.204287574" x="66" y="80" width="14" height="7" rx="2"></rect>
                <rect id="形状结合备份-40" fill="url(#linearGradient-15)" opacity="0.204287574" x="48" y="80" width="14" height="7" rx="2"></rect>
                <path d="M31,68 L73,68 C74.6568542,68 76,69.3431458 76,71 C76,72.6568542 74.6568542,74 73,74 L31,74 C29.3431458,74 28,72.6568542 28,71 C28,69.3431458 29.3431458,68 31,68 Z M31,52 L57,52 C58.6568542,52 60,53.3431458 60,55 C60,56.6568542 58.6568542,58 57,58 L31,58 C29.3431458,58 28,56.6568542 28,55 C28,53.3431458 29.3431458,52 31,52 Z" id="形状结合备份-41" fill="url(#linearGradient-16)" opacity="0.303770519"></path>
                <path d="M46.5,47 C49.5375661,47 52,49.4624339 52,52.5 C52,55.5375661 49.5375661,58 46.5,58 C43.4624339,58 41,55.5375661 41,52.5 C41,49.4624339 43.4624339,47 46.5,47 Z" id="形状结合备份" stroke="#FFFFFF" fill="#FFFFFF" fill-rule="nonzero"></path>
                <path d="M58.5,49 L89.5,49 C90.3284271,49 91,49.6715729 91,50.5 C91,51.3284271 90.3284271,52 89.5,52 L58.5,52 C57.6715729,52 57,51.3284271 57,50.5 C57,49.6715729 57.6715729,49 58.5,49 Z" id="形状结合备份-44" stroke="#FFFFFF" fill="#FFFFFF" fill-rule="nonzero"></path>
                <path d="M59.5,58 L76.5,58 C77.3284271,58 78,58.6715729 78,59.5 C78,60.3284271 77.3284271,61 76.5,61 L59.5,61 C58.6715729,61 58,60.3284271 58,59.5 C58,58.6715729 58.6715729,58 59.5,58 Z" id="形状结合备份-17" stroke="#FFFFFF" fill="#FFFFFF" fill-rule="nonzero" opacity="0.699016753"></path>
                <path d="M74,69 L82,69 C82.5522847,69 83,69.4477153 83,70 L83,73 C83,73.5522847 82.5522847,74 82,74 L74,74 C73.4477153,74 73,73.5522847 73,73 L73,70 C73,69.4477153 73.4477153,69 74,69 Z" id="形状结合备份-42" stroke="#FFFFFF" fill="#FFFFFF" fill-rule="nonzero" opacity="0.699016753"></path>
                <path d="M88,69 L96,69 C96.5522847,69 97,69.4477153 97,70 L97,73 C97,73.5522847 96.5522847,74 96,74 L88,74 C87.4477153,74 87,73.5522847 87,73 L87,70 C87,69.4477153 87.4477153,69 88,69 Z" id="形状结合备份-43" stroke="#FFFFFF" fill="#FFFFFF" fill-rule="nonzero" opacity="0.699016753"></path>
            </g>
        </g>
    </g>
</svg>