<?xml version="1.0" encoding="UTF-8"?>
<svg width="125px" height="125px" viewBox="0 0 125 125" version="1.1" xmlns="http://www.w3.org/2000/svg" xmlns:xlink="http://www.w3.org/1999/xlink">
    <title>电话号码 Phonenumber</title>
    <defs>
        <linearGradient x1="50%" y1="45.9685271%" x2="50%" y2="100%" id="linearGradient-1">
            <stop stop-color="#ECF3FB" offset="0%"></stop>
            <stop stop-color="#FFFFFF" offset="100%"></stop>
        </linearGradient>
        <linearGradient x1="50.3956523%" y1="35.9331967%" x2="50%" y2="64.0668033%" id="linearGradient-2">
            <stop stop-color="#E3EFFD" stop-opacity="0.00575352382" offset="0%"></stop>
            <stop stop-color="#E5F0FD" offset="34.0601199%"></stop>
            <stop stop-color="#F0F6FE" offset="100%"></stop>
        </linearGradient>
        <linearGradient x1="33.3333333%" y1="34.495573%" x2="96.9740837%" y2="65.4421891%" id="linearGradient-3">
            <stop stop-color="#D5E6F9" offset="0%"></stop>
            <stop stop-color="#F7FBFF" stop-opacity="0" offset="100%"></stop>
        </linearGradient>
        <linearGradient x1="90.9912104%" y1="29.4309598%" x2="33.3333333%" y2="67.7472684%" id="linearGradient-4">
            <stop stop-color="#D5E6F9" offset="0%"></stop>
            <stop stop-color="#E7F0F9" stop-opacity="0" offset="100%"></stop>
        </linearGradient>
        <linearGradient x1="-5.8027489%" y1="27.0499439%" x2="103.630422%" y2="71.1332543%" id="linearGradient-5">
            <stop stop-color="#CEE6FE" offset="0%"></stop>
            <stop stop-color="#8AB5F2" offset="100%"></stop>
        </linearGradient>
        <linearGradient x1="-5.8027489%" y1="27.0499439%" x2="103.630422%" y2="71.1332543%" id="linearGradient-6">
            <stop stop-color="#BFD6F9" offset="0%"></stop>
            <stop stop-color="#F3F6FE" offset="100%"></stop>
        </linearGradient>
        <linearGradient x1="89.8473889%" y1="61.7348066%" x2="0%" y2="61.7348066%" id="linearGradient-7">
            <stop stop-color="#CAD9F3" offset="0%"></stop>
            <stop stop-color="#D5E3F7" offset="100%"></stop>
        </linearGradient>
        <filter x="-18.5%" y="-60.0%" width="136.9%" height="220.0%" filterUnits="objectBoundingBox" id="filter-8">
            <feGaussianBlur stdDeviation="4" in="SourceGraphic"></feGaussianBlur>
        </filter>
        <linearGradient x1="44.7036339%" y1="86.8386573%" x2="120.717179%" y2="-43.8247114%" id="linearGradient-9">
            <stop stop-color="#5073E5" offset="0%"></stop>
            <stop stop-color="#5E7CE0" offset="100%"></stop>
        </linearGradient>
        <linearGradient x1="44.7036339%" y1="86.8386573%" x2="120.717179%" y2="-43.8247114%" id="linearGradient-10">
            <stop stop-color="#5073E5" offset="0%"></stop>
            <stop stop-color="#5E7CE0" offset="100%"></stop>
        </linearGradient>
        <linearGradient x1="44.0988019%" y1="56.0353583%" x2="128.792906%" y2="34.6284912%" id="linearGradient-11">
            <stop stop-color="#5073E5" offset="0%"></stop>
            <stop stop-color="#5E7CE0" offset="100%"></stop>
        </linearGradient>
        <path d="M55.6896552,9 L55.6896552,27.312 C55.6896552,28.781706 54.5094009,29.975892 53.0444634,29.999622 L53,30 L53,11.688 C53,10.218294 54.1802543,9.024108 55.6451918,9.000378 L55.6896552,9 Z M79,9 L79,27.312 C79,28.781706 77.7410621,29.975892 76.1784621,29.999622 L76.1310345,30 L70.0344828,30 C70.0344828,28.515468 71.3189724,27.312 72.9034483,27.312 L76.1310345,27.312 L76.1310345,20.886 L70.0344828,20.886 C70.0344828,19.401468 71.3189724,18.198 72.9034483,18.198 L76.1310345,18.198 L76.1310345,11.688 L70.0344828,11.688 C70.0344828,10.203468 71.3189724,9 72.9034483,9 L79,9 Z M67.3448276,9 L67.3448276,18.198 C67.3448276,19.667706 66.0858897,20.861892 64.5232897,20.885622 L64.4758621,20.886 L61.2482759,20.886 L61.2482759,27.312 L67.3448276,27.312 C67.3448276,28.796532 66.0603379,30 64.4758621,30 L58.3793103,30 L58.3793103,20.886 C58.3793103,19.416294 59.6382483,18.222108 61.2008483,18.198378 L61.2482759,18.198 L64.4758621,18.198 L64.4758621,11.688 L58.3793103,11.688 C58.3793103,10.203468 59.6638,9 61.2482759,9 L67.3448276,9 Z" id="path-12"></path>
        <filter x="-15.4%" y="-9.5%" width="130.8%" height="138.1%" filterUnits="objectBoundingBox" id="filter-13">
            <feOffset dx="0" dy="2" in="SourceAlpha" result="shadowOffsetOuter1"></feOffset>
            <feGaussianBlur stdDeviation="1" in="shadowOffsetOuter1" result="shadowBlurOuter1"></feGaussianBlur>
            <feColorMatrix values="0 0 0 0 0.368627451   0 0 0 0 0.48627451   0 0 0 0 0.878431373  0 0 0 0.349865467 0" type="matrix" in="shadowBlurOuter1"></feColorMatrix>
        </filter>
        <linearGradient x1="100%" y1="48.9795918%" x2="6.58643108%" y2="51.0204082%" id="linearGradient-14">
            <stop stop-color="#FFCC00" offset="0%"></stop>
            <stop stop-color="#FF9D00" offset="100%"></stop>
        </linearGradient>
    </defs>
    <g id="页面一" stroke="none" stroke-width="1" fill="none" fill-rule="evenodd">
        <g id="-TinyUI-ICON-2-【9-2】-无阴影备份" transform="translate(-1089.000000, -1434.000000)">
            <g id="编组-23备份" transform="translate(989.000000, 1401.000000)">
                <g id="电话号码-Phonenumber" transform="translate(100.000000, 33.000000)">
                    <g id="背景" transform="translate(9.000000, 1.000000)">
                        <g id="编组">
                            <polygon id="多边形" fill="url(#linearGradient-1)" opacity="0.54620216" points="53.2605623 0 106.521125 30.75 53.2605623 62 0 30.75"></polygon>
                            <polygon id="多边形" fill="url(#linearGradient-2)" points="53.2605623 61.5 106.521125 86.75 53.2605623 118 0 86.75"></polygon>
                            <polygon id="多边形" fill="url(#linearGradient-3)" opacity="0.600606283" points="53.2605623 62 53.2605623 123 7.39138783e-15 92.25 0 30.75"></polygon>
                            <polygon id="多边形" fill="url(#linearGradient-4)" opacity="0.791265578" points="53.2605623 62 106.521125 30.75 106.521125 92.25 53.2605623 123"></polygon>
                            <polygon id="多边形" fill="url(#linearGradient-5)" points="53.2605623 118.007802 53.2605623 123 7.39138783e-15 92.25 0 86.9161706"></polygon>
                            <polygon id="多边形" fill="url(#linearGradient-6)" transform="translate(79.630281, 104.958085) scale(-1, 1) translate(-79.630281, -104.958085) " points="106.260562 118.007802 106.260562 123 53 92.25 53 86.9161706"></polygon>
                        </g>
                        <ellipse id="椭圆形" fill="url(#linearGradient-7)" filter="url(#filter-8)" cx="53.5" cy="89" rx="32.5" ry="10"></ellipse>
                    </g>
                    <g id="编组-19" transform="translate(21.000000, 40.000000)">
                        <rect id="矩形备份-6" stroke="url(#linearGradient-10)" stroke-width="0.943396226" fill="url(#linearGradient-9)" x="5" y="0" width="36" height="38" rx="4"></rect>
                        <rect id="矩形备份-16" fill="url(#linearGradient-11)" opacity="0.204287574" x="0" y="2" width="84" height="34" rx="4"></rect>
                        <g id="形状">
                            <use fill="black" fill-opacity="1" filter="url(#filter-13)" xlink:href="#path-12"></use>
                            <use fill="#5073E5" fill-rule="evenodd" xlink:href="#path-12"></use>
                        </g>
                        <path d="M37.5,18 L55.5,18 C56.3284271,18 57,18.6715729 57,19.5 C57,20.3284271 56.3284271,21 55.5,21 L37.5,21 C36.6715729,21 36,20.3284271 36,19.5 C36,18.6715729 36.6715729,18 37.5,18 Z" id="形状结合备份-19" fill="url(#linearGradient-14)" transform="translate(46.500000, 19.500000) rotate(-90.000000) translate(-46.500000, -19.500000) "></path>
                        <path d="M34.5585063,25.6034827 C33.0070997,27.1785779 30.9892892,28.2286415 28.7947362,28.6139859 L27.2384201,28.8885438 C26.2859743,29.0571319 25.3089809,29.0330479 24.3663541,28.8259253 L22.7854904,28.4405809 C19.623763,27.6747089 16.741878,26.0658959 14.4491347,23.7923639 L13.3297653,22.3280552 L12.9370042,21.8174738 C12.3576814,21.0564186 11.9354632,20.1942105 11.6998065,19.2742007 L11.3168644,17.7713575 C10.7768178,15.6471465 10.9290127,13.4121489 11.7587207,11.3794571 C11.9452822,10.9218606 12.3429529,10.5798675 12.8289948,10.4546305 L14.5129583,10.0259349 C14.8664434,9.93923239 15.234657,10.0741029 15.4408566,10.367928 L18.0134422,14.0576008 C18.258918,14.4092275 18.3816558,14.8282896 18.3669273,15.2521684 C18.3472892,15.757933 18.1361801,16.2396135 17.772876,16.6008739 L16.8253397,17.5353341 C16.2902026,18.0603658 15.9907222,18.7684362 15.9907222,19.5102242 C15.9907222,20.2520122 16.2902026,20.9600825 16.8253397,21.4851143 L17.7974236,22.4388417 C18.2540084,22.8868046 18.764598,23.2865994 19.3095541,23.6237758 C19.7906865,23.9224177 20.3061855,24.1728915 20.8364131,24.3703805 L23.0849708,25.2133214 C23.7919409,25.4782457 24.5725537,25.4541617 25.2598857,25.150703 C25.9472178,24.8472443 26.4872644,24.2884949 26.7523782,23.5996917 L27.2335106,22.3617728 C27.4200721,21.8849091 27.7784667,21.4995647 28.2448706,21.2779917 C28.6327222,21.0901363 29.0745786,21.0323346 29.5017063,21.1045867 L33.9840931,21.8945427 C34.3424877,21.9571612 34.62233,22.2317191 34.6812442,22.5833458 L34.9758151,24.2644108 C35.0641863,24.755725 34.9070819,25.2518559 34.5585063,25.6034827 L34.5585063,25.6034827 Z" id="路径" fill="#FFFFFF" fill-rule="nonzero"></path>
                    </g>
                </g>
            </g>
        </g>
    </g>
</svg>