<?xml version="1.0" encoding="UTF-8"?>
<svg width="125px" height="125px" viewBox="0 0 125 125" version="1.1" xmlns="http://www.w3.org/2000/svg" xmlns:xlink="http://www.w3.org/1999/xlink">
    <title>Popconfirm 气泡确认框</title>
    <defs>
        <linearGradient x1="50%" y1="45.9685271%" x2="50%" y2="100%" id="linearGradient-1">
            <stop stop-color="#ECF3FB" offset="0%"></stop>
            <stop stop-color="#FFFFFF" offset="100%"></stop>
        </linearGradient>
        <linearGradient x1="50.3956523%" y1="35.9331967%" x2="50%" y2="64.0668033%" id="linearGradient-2">
            <stop stop-color="#E3EFFD" stop-opacity="0.00575352382" offset="0%"></stop>
            <stop stop-color="#E5F0FD" offset="34.0601199%"></stop>
            <stop stop-color="#F0F6FE" offset="100%"></stop>
        </linearGradient>
        <linearGradient x1="33.3333333%" y1="34.495573%" x2="96.9740837%" y2="65.4421891%" id="linearGradient-3">
            <stop stop-color="#D5E6F9" offset="0%"></stop>
            <stop stop-color="#F7FBFF" stop-opacity="0" offset="100%"></stop>
        </linearGradient>
        <linearGradient x1="90.9912104%" y1="29.4309598%" x2="33.3333333%" y2="67.7472684%" id="linearGradient-4">
            <stop stop-color="#D5E6F9" offset="0%"></stop>
            <stop stop-color="#E7F0F9" stop-opacity="0" offset="100%"></stop>
        </linearGradient>
        <linearGradient x1="-5.8027489%" y1="27.0499439%" x2="103.630422%" y2="71.1332543%" id="linearGradient-5">
            <stop stop-color="#CEE6FE" offset="0%"></stop>
            <stop stop-color="#8AB5F2" offset="100%"></stop>
        </linearGradient>
        <linearGradient x1="-5.8027489%" y1="27.0499439%" x2="103.630422%" y2="71.1332543%" id="linearGradient-6">
            <stop stop-color="#BFD6F9" offset="0%"></stop>
            <stop stop-color="#F3F6FE" offset="100%"></stop>
        </linearGradient>
        <linearGradient x1="89.8473889%" y1="61.7348066%" x2="0%" y2="61.7348066%" id="linearGradient-7">
            <stop stop-color="#CAD9F3" offset="0%"></stop>
            <stop stop-color="#D5E3F7" offset="100%"></stop>
        </linearGradient>
        <filter x="-18.5%" y="-60.0%" width="136.9%" height="220.0%" filterUnits="objectBoundingBox" id="filter-8">
            <feGaussianBlur stdDeviation="4" in="SourceGraphic"></feGaussianBlur>
        </filter>
        <linearGradient x1="44.0988019%" y1="61.7475801%" x2="128.792906%" y2="20.0799813%" id="linearGradient-9">
            <stop stop-color="#5073E5" offset="0%"></stop>
            <stop stop-color="#5E7CE0" offset="100%"></stop>
        </linearGradient>
        <linearGradient x1="44.0988019%" y1="55.413236%" x2="128.792906%" y2="36.2129799%" id="linearGradient-10">
            <stop stop-color="#5073E5" offset="0%"></stop>
            <stop stop-color="#5E7CE0" offset="100%"></stop>
        </linearGradient>
        <linearGradient x1="50%" y1="0%" x2="50%" y2="100%" id="linearGradient-11">
            <stop stop-color="#FFCC00" offset="0%"></stop>
            <stop stop-color="#FF9D00" offset="100%"></stop>
        </linearGradient>
        <circle id="path-12" cx="8" cy="8" r="8"></circle>
        <filter x="-43.8%" y="-31.2%" width="187.5%" height="187.5%" filterUnits="objectBoundingBox" id="filter-13">
            <feOffset dx="0" dy="2" in="SourceAlpha" result="shadowOffsetOuter1"></feOffset>
            <feMorphology radius="4" operator="erode" in="SourceAlpha" result="shadowInner"></feMorphology>
            <feOffset dx="0" dy="2" in="shadowInner" result="shadowInner"></feOffset>
            <feComposite in="shadowOffsetOuter1" in2="shadowInner" operator="out" result="shadowOffsetOuter1"></feComposite>
            <feGaussianBlur stdDeviation="2" in="shadowOffsetOuter1" result="shadowBlurOuter1"></feGaussianBlur>
            <feColorMatrix values="0 0 0 0 0.661752894   0 0 0 0 0.324547702   0 0 0 0 0.00489962574  0 0 0 0.5 0" type="matrix" in="shadowBlurOuter1"></feColorMatrix>
        </filter>
        <filter x="-46.9%" y="-34.4%" width="193.8%" height="193.8%" filterUnits="objectBoundingBox" id="filter-14">
            <feGaussianBlur stdDeviation="1.5" in="SourceAlpha" result="shadowBlurInner1"></feGaussianBlur>
            <feOffset dx="0" dy="-4" in="shadowBlurInner1" result="shadowOffsetInner1"></feOffset>
            <feComposite in="shadowOffsetInner1" in2="SourceAlpha" operator="arithmetic" k2="-1" k3="1" result="shadowInnerInner1"></feComposite>
            <feColorMatrix values="0 0 0 0 0.841553619   0 0 0 0 0.341832308   0 0 0 0 0  0 0 0 0.5 0" type="matrix" in="shadowInnerInner1"></feColorMatrix>
        </filter>
        <polygon id="path-15" points="7.71298757 6.80228137 6.27540338 20.814413 10.9449685 18.9202277 13.4194729 25.8022814 15.8096817 24.7804537 13.2116343 17.9762941 17.8108161 16.4874666"></polygon>
        <filter x="-47.7%" y="-18.4%" width="195.4%" height="157.9%" filterUnits="objectBoundingBox" id="filter-16">
            <feOffset dx="0" dy="2" in="SourceAlpha" result="shadowOffsetOuter1"></feOffset>
            <feGaussianBlur stdDeviation="1.5" in="shadowOffsetOuter1" result="shadowBlurOuter1"></feGaussianBlur>
            <feColorMatrix values="0 0 0 0 0   0 0 0 0 0   0 0 0 0 0  0 0 0 0.5 0" type="matrix" in="shadowBlurOuter1"></feColorMatrix>
        </filter>
        <linearGradient x1="44.0988019%" y1="62.9020556%" x2="128.792906%" y2="17.1396372%" id="linearGradient-17">
            <stop stop-color="#5073E5" offset="0%"></stop>
            <stop stop-color="#5E7CE0" offset="100%"></stop>
        </linearGradient>
        <linearGradient x1="44.0988019%" y1="62.9020556%" x2="128.792906%" y2="17.1396372%" id="linearGradient-18">
            <stop stop-color="#5073E5" offset="0%"></stop>
            <stop stop-color="#5E7CE0" offset="100%"></stop>
        </linearGradient>
        <path d="M64,0 C66.209139,-4.05812251e-16 68,1.790861 68,4 L68,33 C68,35.209139 66.209139,37 64,37 L37.242,37 L34,40.2426407 L30.757,37 L4,37 C1.790861,37 2.705415e-16,35.209139 0,33 L0,4 C-2.705415e-16,1.790861 1.790861,4.05812251e-16 4,0 L64,0 Z" id="path-19"></path>
        <filter x="-6.6%" y="-6.2%" width="113.2%" height="122.9%" filterUnits="objectBoundingBox" id="filter-20">
            <feMorphology radius="0.5" operator="dilate" in="SourceAlpha" result="shadowSpreadOuter1"></feMorphology>
            <feOffset dx="0" dy="2" in="shadowSpreadOuter1" result="shadowOffsetOuter1"></feOffset>
            <feGaussianBlur stdDeviation="1" in="shadowOffsetOuter1" result="shadowBlurOuter1"></feGaussianBlur>
            <feComposite in="shadowBlurOuter1" in2="SourceAlpha" operator="out" result="shadowBlurOuter1"></feComposite>
            <feColorMatrix values="0 0 0 0 0.368627451   0 0 0 0 0.48627451   0 0 0 0 0.878431373  0 0 0 0.65213034 0" type="matrix" in="shadowBlurOuter1"></feColorMatrix>
        </filter>
        <path d="M11.5,6 C14.5375661,6 17,8.46243388 17,11.5 C17,14.5375661 14.5375661,17 11.5,17 C8.46243388,17 6,14.5375661 6,11.5 C6,8.46243388 8.46243388,6 11.5,6 Z" id="path-21"></path>
        <filter x="-40.9%" y="-22.7%" width="181.8%" height="181.8%" filterUnits="objectBoundingBox" id="filter-22">
            <feMorphology radius="0.5" operator="dilate" in="SourceAlpha" result="shadowSpreadOuter1"></feMorphology>
            <feOffset dx="0" dy="2" in="shadowSpreadOuter1" result="shadowOffsetOuter1"></feOffset>
            <feGaussianBlur stdDeviation="1" in="shadowOffsetOuter1" result="shadowBlurOuter1"></feGaussianBlur>
            <feComposite in="shadowBlurOuter1" in2="SourceAlpha" operator="out" result="shadowBlurOuter1"></feComposite>
            <feColorMatrix values="0 0 0 0 0.232993057   0 0 0 0 0.361563365   0 0 0 0 0.790131058  0 0 0 1 0" type="matrix" in="shadowBlurOuter1"></feColorMatrix>
        </filter>
    </defs>
    <g id="页面一" stroke="none" stroke-width="1" fill="none" fill-rule="evenodd">
        <g id="-TinyUI-ICON-2-【9-2】-无阴影" transform="translate(-1481.000000, -574.000000)">
            <g id="Popconfirm-气泡确认框" transform="translate(1481.000000, 574.000000)">
                <g id="编组">
                    <g transform="translate(9.000000, 1.000000)" id="多边形">
                        <polygon fill="url(#linearGradient-1)" opacity="0.54620216" points="53.2605623 0 106.521125 30.75 53.2605623 62 0 30.75"></polygon>
                        <polygon fill="url(#linearGradient-2)" points="53.2605623 61.5 106.521125 86.75 53.2605623 118 0 86.75"></polygon>
                        <polygon fill="url(#linearGradient-3)" opacity="0.600606283" points="53.2605623 62 53.2605623 123 7.39138783e-15 92.25 0 30.75"></polygon>
                        <polygon fill="url(#linearGradient-4)" opacity="0.791265578" points="53.2605623 62 106.521125 30.75 106.521125 92.25 53.2605623 123"></polygon>
                        <polygon fill="url(#linearGradient-5)" points="53.2605623 118.007802 53.2605623 123 7.39138783e-15 92.25 0 86.9161706"></polygon>
                        <polygon fill="url(#linearGradient-6)" transform="translate(79.630281, 104.958085) scale(-1, 1) translate(-79.630281, -104.958085) " points="106.260562 118.007802 106.260562 123 53 92.25 53 86.9161706"></polygon>
                    </g>
                    <ellipse id="椭圆形" fill="url(#linearGradient-7)" filter="url(#filter-8)" cx="62.5" cy="90" rx="32.5" ry="10"></ellipse>
                </g>
                <g id="编组-22" transform="translate(20.000000, 43.000000)">
                    <path d="M4,0 L18.3010981,0 L18.3010981,0 L81,0 C83.209139,-8.25425059e-15 85,1.790861 85,4 L85,44 C85,46.209139 83.209139,48 81,48 L4,48 C1.790861,48 2.705415e-16,46.209139 0,44 L0,4 C-2.705415e-16,1.790861 1.790861,4.05812251e-16 4,0 Z" id="矩形" fill="url(#linearGradient-9)" opacity="0.204287574"></path>
                    <path d="M30,31 L67,31 C68.6568542,31 70,32.3431458 70,34 C70,35.6568542 68.6568542,37 67,37 L30,37 C28.3431458,37 27,35.6568542 27,34 C27,32.3431458 28.3431458,31 30,31 Z M13,14 L47,14 C48.6568542,14 50,15.3431458 50,17 C50,18.6568542 48.6568542,20 47,20 L13,20 C11.3431458,20 10,18.6568542 10,17 C10,15.3431458 11.3431458,14 13,14 Z" id="形状结合备份-41" fill="url(#linearGradient-10)" opacity="0.303770519"></path>
                </g>
                <g id="编组-23" transform="translate(70.000000, 74.000000)">
                    <g id="椭圆形">
                        <use fill="black" fill-opacity="1" filter="url(#filter-13)" xlink:href="#path-12"></use>
                        <use fill="black" fill-opacity="1" filter="url(#filter-14)" xlink:href="#path-12"></use>
                        <circle stroke="url(#linearGradient-11)" stroke-width="4" stroke-linejoin="square" cx="8" cy="8" r="6"></circle>
                    </g>
                    <g id="路径-2">
                        <use fill="black" fill-opacity="1" filter="url(#filter-16)" xlink:href="#path-15"></use>
                        <use fill="#000000" fill-rule="evenodd" xlink:href="#path-15"></use>
                    </g>
                </g>
                <g id="编组-21" transform="translate(35.000000, 31.000000)">
                    <g id="形状结合">
                        <use fill="black" fill-opacity="1" filter="url(#filter-20)" xlink:href="#path-19"></use>
                        <use stroke="url(#linearGradient-18)" stroke-width="1" fill="url(#linearGradient-17)" fill-rule="evenodd" xlink:href="#path-19"></use>
                    </g>
                    <g id="形状结合备份" fill-rule="nonzero">
                        <use fill="black" fill-opacity="1" filter="url(#filter-22)" xlink:href="#path-21"></use>
                        <use stroke="#FFFFFF" stroke-width="1" fill="#FFFFFF" xlink:href="#path-21"></use>
                    </g>
                    <path d="M23.5,8 L60.5,8 C61.3284271,8 62,8.67157288 62,9.5 C62,10.3284271 61.3284271,11 60.5,11 L23.5,11 C22.6715729,11 22,10.3284271 22,9.5 C22,8.67157288 22.6715729,8 23.5,8 Z" id="形状结合备份-44" stroke="#FFFFFF" fill="#FFFFFF" fill-rule="nonzero"></path>
                    <path d="M24.5,17 L41.5,17 C42.3284271,17 43,17.6715729 43,18.5 C43,19.3284271 42.3284271,20 41.5,20 L24.5,20 C23.6715729,20 23,19.3284271 23,18.5 C23,17.6715729 23.6715729,17 24.5,17 Z" id="形状结合备份-17" stroke="#FFFFFF" fill="#FFFFFF" fill-rule="nonzero" opacity="0.699016753"></path>
                    <path d="M39,26 L47,26 C47.5522847,26 48,26.4477153 48,27 L48,30 C48,30.5522847 47.5522847,31 47,31 L39,31 C38.4477153,31 38,30.5522847 38,30 L38,27 C38,26.4477153 38.4477153,26 39,26 Z" id="形状结合备份-42" stroke="#FFFFFF" fill="#FFFFFF" fill-rule="nonzero" opacity="0.699016753"></path>
                    <path d="M53,26 L61,26 C61.5522847,26 62,26.4477153 62,27 L62,30 C62,30.5522847 61.5522847,31 61,31 L53,31 C52.4477153,31 52,30.5522847 52,30 L52,27 C52,26.4477153 52.4477153,26 53,26 Z" id="形状结合备份-43" stroke="#FFFFFF" fill="#FFFFFF" fill-rule="nonzero" opacity="0.699016753"></path>
                </g>
            </g>
        </g>
    </g>
</svg>