<?xml version="1.0" encoding="UTF-8"?>
<svg width="125px" height="125px" viewBox="0 0 125 125" version="1.1" xmlns="http://www.w3.org/2000/svg" xmlns:xlink="http://www.w3.org/1999/xlink">
    <title>权益 Rights</title>
    <defs>
        <linearGradient x1="50%" y1="45.9685271%" x2="50%" y2="100%" id="linearGradient-1">
            <stop stop-color="#ECF3FB" offset="0%"></stop>
            <stop stop-color="#FFFFFF" offset="100%"></stop>
        </linearGradient>
        <linearGradient x1="50.3956523%" y1="35.9331967%" x2="50%" y2="64.0668033%" id="linearGradient-2">
            <stop stop-color="#E3EFFD" stop-opacity="0.00575352382" offset="0%"></stop>
            <stop stop-color="#E5F0FD" offset="34.0601199%"></stop>
            <stop stop-color="#F0F6FE" offset="100%"></stop>
        </linearGradient>
        <linearGradient x1="33.3333333%" y1="34.495573%" x2="96.9740837%" y2="65.4421891%" id="linearGradient-3">
            <stop stop-color="#D5E6F9" offset="0%"></stop>
            <stop stop-color="#F7FBFF" stop-opacity="0" offset="100%"></stop>
        </linearGradient>
        <linearGradient x1="90.9912104%" y1="29.4309598%" x2="33.3333333%" y2="67.7472684%" id="linearGradient-4">
            <stop stop-color="#D5E6F9" offset="0%"></stop>
            <stop stop-color="#E7F0F9" stop-opacity="0" offset="100%"></stop>
        </linearGradient>
        <linearGradient x1="-5.8027489%" y1="27.0499439%" x2="103.630422%" y2="71.1332543%" id="linearGradient-5">
            <stop stop-color="#CEE6FE" offset="0%"></stop>
            <stop stop-color="#8AB5F2" offset="100%"></stop>
        </linearGradient>
        <linearGradient x1="-5.8027489%" y1="27.0499439%" x2="103.630422%" y2="71.1332543%" id="linearGradient-6">
            <stop stop-color="#BFD6F9" offset="0%"></stop>
            <stop stop-color="#F3F6FE" offset="100%"></stop>
        </linearGradient>
        <linearGradient x1="89.8473889%" y1="61.7348066%" x2="0%" y2="61.7348066%" id="linearGradient-7">
            <stop stop-color="#CAD9F3" offset="0%"></stop>
            <stop stop-color="#D5E3F7" offset="100%"></stop>
        </linearGradient>
        <filter x="-18.5%" y="-60.0%" width="136.9%" height="220.0%" filterUnits="objectBoundingBox" id="filter-8">
            <feGaussianBlur stdDeviation="4" in="SourceGraphic"></feGaussianBlur>
        </filter>
        <linearGradient x1="50%" y1="0%" x2="50%" y2="100%" id="linearGradient-9">
            <stop stop-color="#FFCC00" offset="0%"></stop>
            <stop stop-color="#FF9D00" offset="100%"></stop>
        </linearGradient>
        <path d="M36.4078074,39 L20.5921926,39 C19.1600062,39 18,37.88125 18,36.5 C18,35.11875 19.1600062,34 20.5921926,34 L36.4078074,34 C37.8399938,34 39,35.11875 39,36.5 C39,37.88125 37.8399938,39 36.4078074,39 Z" id="path-10"></path>
        <filter x="-16.7%" y="-50.0%" width="133.3%" height="240.0%" filterUnits="objectBoundingBox" id="filter-11">
            <feOffset dx="0" dy="1" in="SourceAlpha" result="shadowOffsetOuter1"></feOffset>
            <feGaussianBlur stdDeviation="1" in="shadowOffsetOuter1" result="shadowBlurOuter1"></feGaussianBlur>
            <feColorMatrix values="0 0 0 0 0.661752894   0 0 0 0 0.324547702   0 0 0 0 0.00489962574  0 0 0 0.5 0" type="matrix" in="shadowBlurOuter1"></feColorMatrix>
        </filter>
    </defs>
    <g id="页面一" stroke="none" stroke-width="1" fill="none" fill-rule="evenodd">
        <g id="-TinyUI-ICON-2-【9-2】-无阴影备份" transform="translate(-1869.000000, -1159.000000)">
            <g id="编组-25备份-20" transform="translate(1771.000000, 1126.000000)">
                <g id="权益-Rights" transform="translate(98.000000, 33.000000)">
                    <g id="背景" transform="translate(9.000000, 1.000000)">
                        <g id="编组">
                            <polygon id="多边形" fill="url(#linearGradient-1)" opacity="0.54620216" points="53.2605623 0 106.521125 30.75 53.2605623 62 0 30.75"></polygon>
                            <polygon id="多边形" fill="url(#linearGradient-2)" points="53.2605623 61.5 106.521125 86.75 53.2605623 118 0 86.75"></polygon>
                            <polygon id="多边形" fill="url(#linearGradient-3)" opacity="0.600606283" points="53.2605623 62 53.2605623 123 7.39138783e-15 92.25 0 30.75"></polygon>
                            <polygon id="多边形" fill="url(#linearGradient-4)" opacity="0.791265578" points="53.2605623 62 106.521125 30.75 106.521125 92.25 53.2605623 123"></polygon>
                            <polygon id="多边形" fill="url(#linearGradient-5)" points="53.2605623 118.007802 53.2605623 123 7.39138783e-15 92.25 0 86.9161706"></polygon>
                            <polygon id="多边形" fill="url(#linearGradient-6)" transform="translate(79.630281, 104.958085) scale(-1, 1) translate(-79.630281, -104.958085) " points="106.260562 118.007802 106.260562 123 53 92.25 53 86.9161706"></polygon>
                        </g>
                        <ellipse id="椭圆形" fill="url(#linearGradient-7)" filter="url(#filter-8)" cx="53.5" cy="89" rx="32.5" ry="10"></ellipse>
                    </g>
                    <g id="编组-13" transform="translate(34.000000, 35.000000)">
                        <path d="M52.9299805,10.1001007 L28.8686415,24.2807025 L5.06250844,10.4968737 C4.55864031,10.2033262 3.93371296,10.6097766 4.00569412,11.1839684 L7.54913037,39.274205 L7.55894598,39.2774308 C7.64074275,41.2354893 9.24395952,43 11.4819193,43 L46.0001578,43 C48.2871956,43 49.9198592,41.1548444 49.9296748,39.1387215 L49.9689373,39.1354957 L53.9933386,10.793647 C54.0718635,10.2162294 53.4403924,9.80010166 52.9299805,10.1001007 Z" id="路径" fill-opacity="0.606542627" fill="#5073E5" fill-rule="nonzero"></path>
                        <path d="M27.917976,4.32973294 L7.57796314,37.1583282 C5.99214262,39.7158601 7.85686,43 10.8955386,43 L45.1058057,43 C48.1023254,43 49.9735288,39.7926821 48.4687829,37.2351502 L29.1178811,4.3425366 C28.8519561,3.89120744 28.1936298,3.8848056 27.917976,4.32973294 Z" id="路径" fill-opacity="0.606542627" fill="#5073E5" fill-rule="nonzero"></path>
                        <path d="M45.474827,42.9833097 L45.5623876,42.9737812 C45.6823781,42.9610765 45.8023686,42.9420194 45.9158732,42.9197862 C45.9191161,42.9197862 45.9223591,42.91661 45.9288451,42.91661 C46.0423496,42.8943768 46.1526112,42.862615 46.2596297,42.8308532 C46.2855736,42.8213247 46.3115175,42.8149724 46.3407044,42.8054438 C46.4509659,42.7705059 46.5579845,42.7323918 46.66176,42.6847491 C46.668246,42.6815729 46.671489,42.6783968 46.677975,42.6783968 C46.7785075,42.6339303 46.8757971,42.5862876 46.9730867,42.5354688 C46.9957876,42.5227641 47.0184885,42.5132356 47.0379465,42.5005309 C47.1352361,42.4433597 47.2325256,42.3861885 47.3265723,42.322665 C47.4203992,42.2577619 47.5112893,42.1888792 47.5989831,42.1162135 C47.615198,42.1035088 47.631413,42.0876279 47.6476279,42.0749232 C47.7351885,42.0018711 47.8162632,41.9256429 47.8973379,41.8430623 L47.9038238,41.83671 C47.9816555,41.7573055 48.0562442,41.6747249 48.1243469,41.5889682 C48.1340759,41.5762635 48.1470478,41.5635588 48.1567768,41.5476779 C48.2994682,41.369812 48.4291876,41.1760652 48.5362062,40.9759661 C48.5426922,40.9632614 48.5491781,40.9537329 48.5556641,40.9410281 C48.6659257,40.7345767 48.7534863,40.5217728 48.824832,40.2994405 L48.8345609,40.2708549 C48.9026637,40.0453463 48.9513085,39.8134854 48.9772524,39.5784484 C48.9772524,39.572096 48.9804953,39.5625675 48.9804953,39.5562151 C48.9934673,39.4355204 49,39.3180019 49,39.1973072 C49.0031962,38.5557195 48.8378039,37.8982509 48.4681035,37.2757203 L37.6332858,19 L28.1216065,24.57419 L18.8077495,19.21598 L7.57404445,37.2058444 C7.17039582,37.8443351 6.97157342,38.5867295 7.00327884,39.3370589 C7.0130078,39.5784484 7.04543766,39.8134854 7.10056843,40.0453463 L7.10056843,40.0485225 C7.1556992,40.2772072 7.23353087,40.5027158 7.32757748,40.7155196 C7.33082047,40.7186958 7.33082047,40.7250481 7.33406345,40.7282243 C7.42811006,40.937852 7.54485757,41.1411273 7.67457703,41.3316979 C7.681063,41.3380502 7.68430599,41.3475788 7.69079196,41.3539311 C7.82051142,41.5413255 7.9696888,41.7160152 8.13183812,41.8780003 L8.161025,41.9065858 C8.23561369,41.9796379 8.31020237,42.0463376 8.39127703,42.1130373 C8.40100599,42.1225659 8.41073495,42.1289182 8.42046391,42.1384467 C8.50802455,42.2083226 8.59882817,42.2750223 8.68963179,42.3385459 C8.70260373,42.3480744 8.71881866,42.3576029 8.73179061,42.3671315 C8.81286527,42.4211265 8.89718292,42.4687691 8.98150057,42.5164118 C9.00095849,42.5259403 9.0204164,42.538645 9.03987432,42.5481735 C9.13716392,42.5989923 9.2376965,42.6498112 9.34147206,42.6911015 L9.39011686,42.7101585 C9.48092048,42.7450965 9.5717241,42.7800344 9.66577071,42.80862 C9.6917146,42.8181485 9.71765849,42.8245009 9.74684537,42.8340294 C9.85710691,42.8657912 9.96736845,42.8943768 10.080873,42.91661 C10.0938449,42.9197862 10.1068169,42.9197862 10.1197888,42.9229624 C10.2551123,42.9476412 10.3914391,42.9667152 10.5284051,42.9801335 C10.6483956,42.9896621 10.7683861,42.9991906 10.8916196,42.9991906 L45.1018836,42.9991906 C45.22836,43.0023668 45.3515935,42.9960144 45.474827,42.9833097 L45.474827,42.9833097 Z" id="路径" fill="#5073E5" fill-rule="nonzero"></path>
                        <path d="M24,4.5 C24,6.1076951 24.8576951,7.59326671 26.25,8.3971143 C27.6423048,9.2009619 29.3576952,9.2009619 30.75,8.3971143 C32.1423049,7.59326671 33,6.1076951 33,4.5 C33,2.0147186 30.9852814,0 28.5,0 C26.0147186,0 24,2.0147186 24,4.5 L24,4.5 Z" id="路径" fill-opacity="0.606542627" fill="#5073E5" fill-rule="nonzero"></path>
                        <path d="M50,10 C50,12.209139 51.790861,14 54,14 C56.209139,14 58,12.209139 58,10 C58,7.790861 56.209139,6 54,6 C51.790861,6 50,7.790861 50,10 L50,10 Z" id="路径" fill-opacity="0.606542627" fill="#5073E5" fill-rule="nonzero"></path>
                        <path d="M0,10 C0,12.209139 1.790861,14 4,14 C6.209139,14 8,12.209139 8,10 C8,7.790861 6.209139,6 4,6 C1.790861,6 0,7.790861 0,10 L0,10 Z" id="路径" fill-opacity="0.606542627" fill="#5073E5" fill-rule="nonzero"></path>
                        <path d="M45.3057161,52 L10.6942839,52 C9.20423892,52 8,50.8796186 8,49.5 C8,48.1174017 9.20745022,47 10.6942839,47 L45.3057161,47 C46.7957611,47 48,48.1203814 48,49.5 C48,50.8796186 46.7957611,52 45.3057161,52 L45.3057161,52 Z" id="路径" fill="#5073E5" fill-rule="nonzero"></path>
                        <g id="路径">
                            <use fill="black" fill-opacity="1" filter="url(#filter-11)" xlink:href="#path-10"></use>
                            <use fill="url(#linearGradient-9)" fill-rule="evenodd" xlink:href="#path-10"></use>
                        </g>
                    </g>
                </g>
            </g>
        </g>
    </g>
</svg>