<?xml version="1.0" encoding="UTF-8"?>
<svg width="125px" height="125px" viewBox="0 0 125 125" version="1.1" xmlns="http://www.w3.org/2000/svg" xmlns:xlink="http://www.w3.org/1999/xlink">
    <title>选择组 Selectgroup</title>
    <defs>
        <linearGradient x1="50%" y1="45.9685271%" x2="50%" y2="100%" id="linearGradient-1">
            <stop stop-color="#ECF3FB" offset="0%"></stop>
            <stop stop-color="#FFFFFF" offset="100%"></stop>
        </linearGradient>
        <linearGradient x1="50.3956523%" y1="35.9331967%" x2="50%" y2="64.0668033%" id="linearGradient-2">
            <stop stop-color="#E3EFFD" stop-opacity="0.00575352382" offset="0%"></stop>
            <stop stop-color="#E5F0FD" offset="34.0601199%"></stop>
            <stop stop-color="#F0F6FE" offset="100%"></stop>
        </linearGradient>
        <linearGradient x1="33.3333333%" y1="34.495573%" x2="96.9740837%" y2="65.4421891%" id="linearGradient-3">
            <stop stop-color="#D5E6F9" offset="0%"></stop>
            <stop stop-color="#F7FBFF" stop-opacity="0" offset="100%"></stop>
        </linearGradient>
        <linearGradient x1="90.9912104%" y1="29.4309598%" x2="33.3333333%" y2="67.7472684%" id="linearGradient-4">
            <stop stop-color="#D5E6F9" offset="0%"></stop>
            <stop stop-color="#E7F0F9" stop-opacity="0" offset="100%"></stop>
        </linearGradient>
        <linearGradient x1="-5.8027489%" y1="27.0499439%" x2="103.630422%" y2="71.1332543%" id="linearGradient-5">
            <stop stop-color="#CEE6FE" offset="0%"></stop>
            <stop stop-color="#8AB5F2" offset="100%"></stop>
        </linearGradient>
        <linearGradient x1="-5.8027489%" y1="27.0499439%" x2="103.630422%" y2="71.1332543%" id="linearGradient-6">
            <stop stop-color="#BFD6F9" offset="0%"></stop>
            <stop stop-color="#F3F6FE" offset="100%"></stop>
        </linearGradient>
        <linearGradient x1="89.8473889%" y1="61.7348066%" x2="0%" y2="61.7348066%" id="linearGradient-7">
            <stop stop-color="#CAD9F3" offset="0%"></stop>
            <stop stop-color="#D5E3F7" offset="100%"></stop>
        </linearGradient>
        <filter x="-18.5%" y="-60.0%" width="136.9%" height="220.0%" filterUnits="objectBoundingBox" id="filter-8">
            <feGaussianBlur stdDeviation="4" in="SourceGraphic"></feGaussianBlur>
        </filter>
        <linearGradient x1="44.0988019%" y1="59.2096643%" x2="128.792906%" y2="26.5438221%" id="linearGradient-9">
            <stop stop-color="#5073E5" offset="0%"></stop>
            <stop stop-color="#5E7CE0" offset="100%"></stop>
        </linearGradient>
        <linearGradient x1="44.0988019%" y1="60.2659705%" x2="128.792906%" y2="23.8535064%" id="linearGradient-10">
            <stop stop-color="#5073E5" offset="0%"></stop>
            <stop stop-color="#5E7CE0" offset="100%"></stop>
        </linearGradient>
        <linearGradient x1="44.0988019%" y1="60.2659705%" x2="128.792906%" y2="23.8535064%" id="linearGradient-11">
            <stop stop-color="#5073E5" offset="0%"></stop>
            <stop stop-color="#5E7CE0" offset="100%"></stop>
        </linearGradient>
        <linearGradient x1="50%" y1="0%" x2="50%" y2="100%" id="linearGradient-12">
            <stop stop-color="#FFCC00" offset="0%"></stop>
            <stop stop-color="#FF9D00" offset="100%"></stop>
        </linearGradient>
        <circle id="path-13" cx="8" cy="8" r="8"></circle>
        <filter x="-43.8%" y="-31.2%" width="187.5%" height="187.5%" filterUnits="objectBoundingBox" id="filter-14">
            <feOffset dx="0" dy="2" in="SourceAlpha" result="shadowOffsetOuter1"></feOffset>
            <feMorphology radius="4" operator="erode" in="SourceAlpha" result="shadowInner"></feMorphology>
            <feOffset dx="0" dy="2" in="shadowInner" result="shadowInner"></feOffset>
            <feComposite in="shadowOffsetOuter1" in2="shadowInner" operator="out" result="shadowOffsetOuter1"></feComposite>
            <feGaussianBlur stdDeviation="2" in="shadowOffsetOuter1" result="shadowBlurOuter1"></feGaussianBlur>
            <feColorMatrix values="0 0 0 0 0.661752894   0 0 0 0 0.324547702   0 0 0 0 0.00489962574  0 0 0 0.5 0" type="matrix" in="shadowBlurOuter1"></feColorMatrix>
        </filter>
        <filter x="-46.9%" y="-34.4%" width="193.8%" height="193.8%" filterUnits="objectBoundingBox" id="filter-15">
            <feGaussianBlur stdDeviation="1.5" in="SourceAlpha" result="shadowBlurInner1"></feGaussianBlur>
            <feOffset dx="0" dy="-4" in="shadowBlurInner1" result="shadowOffsetInner1"></feOffset>
            <feComposite in="shadowOffsetInner1" in2="SourceAlpha" operator="arithmetic" k2="-1" k3="1" result="shadowInnerInner1"></feComposite>
            <feColorMatrix values="0 0 0 0 0.841553619   0 0 0 0 0.341832308   0 0 0 0 0  0 0 0 0.5 0" type="matrix" in="shadowInnerInner1"></feColorMatrix>
        </filter>
        <polygon id="path-16" points="7.71298757 6.80228137 6.27540338 20.814413 10.9449685 18.9202277 13.4194729 25.8022814 15.8096817 24.7804537 13.2116343 17.9762941 17.8108161 16.4874666"></polygon>
        <filter x="-47.7%" y="-18.4%" width="195.4%" height="157.9%" filterUnits="objectBoundingBox" id="filter-17">
            <feOffset dx="0" dy="2" in="SourceAlpha" result="shadowOffsetOuter1"></feOffset>
            <feGaussianBlur stdDeviation="1.5" in="shadowOffsetOuter1" result="shadowBlurOuter1"></feGaussianBlur>
            <feColorMatrix values="0 0 0 0 0   0 0 0 0 0   0 0 0 0 0  0 0 0 0.5 0" type="matrix" in="shadowBlurOuter1"></feColorMatrix>
        </filter>
    </defs>
    <g id="页面一" stroke="none" stroke-width="1" fill="none" fill-rule="evenodd">
        <g id="-TinyUI-ICON-2-【9-2】-无阴影备份" transform="translate(-1087.000000, -1159.000000)">
            <g id="编组-25备份-15" transform="translate(989.000000, 1126.000000)">
                <g id="选择组-Selectgroup" transform="translate(98.000000, 33.000000)">
                    <g id="背景" transform="translate(9.000000, 1.000000)">
                        <g id="编组">
                            <polygon id="多边形" fill="url(#linearGradient-1)" opacity="0.54620216" points="53.2605623 0 106.521125 30.75 53.2605623 62 0 30.75"></polygon>
                            <polygon id="多边形" fill="url(#linearGradient-2)" points="53.2605623 61.5 106.521125 86.75 53.2605623 118 0 86.75"></polygon>
                            <polygon id="多边形" fill="url(#linearGradient-3)" opacity="0.600606283" points="53.2605623 62 53.2605623 123 7.39138783e-15 92.25 0 30.75"></polygon>
                            <polygon id="多边形" fill="url(#linearGradient-4)" opacity="0.791265578" points="53.2605623 62 106.521125 30.75 106.521125 92.25 53.2605623 123"></polygon>
                            <polygon id="多边形" fill="url(#linearGradient-5)" points="53.2605623 118.007802 53.2605623 123 7.39138783e-15 92.25 0 86.9161706"></polygon>
                            <polygon id="多边形" fill="url(#linearGradient-6)" transform="translate(79.630281, 104.958085) scale(-1, 1) translate(-79.630281, -104.958085) " points="106.260562 118.007802 106.260562 123 53 92.25 53 86.9161706"></polygon>
                        </g>
                        <ellipse id="椭圆形" fill="url(#linearGradient-7)" filter="url(#filter-8)" cx="53.5" cy="89" rx="32.5" ry="10"></ellipse>
                    </g>
                    <g id="编组-11" transform="translate(23.000000, 37.000000)">
                        <g id="编组-12" fill="url(#linearGradient-9)" opacity="0.303770519">
                            <path d="M4,0 L66,0 C68.209139,-4.05812251e-16 70,1.790861 70,4 L70,31 C70,33.209139 68.209139,35 66,35 L4,35 C1.790861,35 2.705415e-16,33.209139 0,31 L0,4 C-2.705415e-16,1.790861 1.790861,4.05812251e-16 4,0 Z" id="矩形备份-15"></path>
                        </g>
                        <g id="编组-8" transform="translate(7.755780, 9.466667)">
                            <path d="M4,0 L68.9942197,0 C71.2033587,-4.05812251e-16 72.9942197,1.790861 72.9942197,4 L72.9942197,34.5333333 C72.9942197,36.7424723 71.2033587,38.5333333 68.9942197,38.5333333 L4,38.5333333 C1.790861,38.5333333 4.19476067e-15,36.7424723 0,34.5333333 L0,4 C-2.705415e-16,1.790861 1.790861,4.05812251e-16 4,0 Z" id="矩形" stroke="url(#linearGradient-11)" fill="url(#linearGradient-10)"></path>
                            <polygon id="形状结合备份-48" fill="#FFFFFF" transform="translate(61.000000, 12.000000) rotate(-180.000000) translate(-61.000000, -12.000000) " points="56 9 66 9 61 15"></polygon>
                            <g id="编组-4备份-2" transform="translate(63.149628, 33.434474) rotate(-15.000000) translate(-63.149628, -33.434474) translate(54.244220, 20.533333)">
                                <g id="椭圆形">
                                    <use fill="black" fill-opacity="1" filter="url(#filter-14)" xlink:href="#path-13"></use>
                                    <use fill="black" fill-opacity="1" filter="url(#filter-15)" xlink:href="#path-13"></use>
                                    <circle stroke="url(#linearGradient-12)" stroke-width="4" stroke-linejoin="square" cx="8" cy="8" r="6"></circle>
                                </g>
                                <g id="路径-2">
                                    <use fill="black" fill-opacity="1" filter="url(#filter-17)" xlink:href="#path-16"></use>
                                    <use fill="#000000" fill-rule="evenodd" xlink:href="#path-16"></use>
                                </g>
                            </g>
                            <path d="M11.7442197,9.53333333 L46.7442197,9.53333333 C48.1249315,9.53333333 49.2442197,10.6526215 49.2442197,12.0333333 C49.2442197,13.4140452 48.1249315,14.5333333 46.7442197,14.5333333 L11.7442197,14.5333333 C10.3635078,14.5333333 9.24421965,13.4140452 9.24421965,12.0333333 C9.24421965,10.6526215 10.3635078,9.53333333 11.7442197,9.53333333 Z" id="形状结合备份" fill="#FFFFFF"></path>
                            <path d="M11.7442197,22.5333333 L35.7442197,22.5333333 C37.1249315,22.5333333 38.2442197,23.6526215 38.2442197,25.0333333 C38.2442197,26.4140452 37.1249315,27.5333333 35.7442197,27.5333333 L11.7442197,27.5333333 C10.3635078,27.5333333 9.24421965,26.4140452 9.24421965,25.0333333 C9.24421965,23.6526215 10.3635078,22.5333333 11.7442197,22.5333333 Z" id="形状结合备份-35" fill="#FFFFFF" opacity="0.6"></path>
                        </g>
                    </g>
                </g>
            </g>
        </g>
    </g>
</svg>