<?xml version="1.0" encoding="UTF-8"?>
<svg width="125px" height="125px" viewBox="0 0 125 125" version="1.1" xmlns="http://www.w3.org/2000/svg" xmlns:xlink="http://www.w3.org/1999/xlink">
    <title>TagsInput 标签输入</title>
    <defs>
        <linearGradient x1="50%" y1="45.9685271%" x2="50%" y2="100%" id="linearGradient-1">
            <stop stop-color="#ECF3FB" offset="0%"></stop>
            <stop stop-color="#FFFFFF" offset="100%"></stop>
        </linearGradient>
        <linearGradient x1="50.3956523%" y1="35.9331967%" x2="50%" y2="64.0668033%" id="linearGradient-2">
            <stop stop-color="#E3EFFD" stop-opacity="0.00575352382" offset="0%"></stop>
            <stop stop-color="#E5F0FD" offset="34.0601199%"></stop>
            <stop stop-color="#F0F6FE" offset="100%"></stop>
        </linearGradient>
        <linearGradient x1="33.3333333%" y1="34.495573%" x2="96.9740837%" y2="65.4421891%" id="linearGradient-3">
            <stop stop-color="#D5E6F9" offset="0%"></stop>
            <stop stop-color="#F7FBFF" stop-opacity="0" offset="100%"></stop>
        </linearGradient>
        <linearGradient x1="90.9912104%" y1="29.4309598%" x2="33.3333333%" y2="67.7472684%" id="linearGradient-4">
            <stop stop-color="#D5E6F9" offset="0%"></stop>
            <stop stop-color="#E7F0F9" stop-opacity="0" offset="100%"></stop>
        </linearGradient>
        <linearGradient x1="-5.8027489%" y1="27.0499439%" x2="103.630422%" y2="71.1332543%" id="linearGradient-5">
            <stop stop-color="#CEE6FE" offset="0%"></stop>
            <stop stop-color="#8AB5F2" offset="100%"></stop>
        </linearGradient>
        <linearGradient x1="-5.8027489%" y1="27.0499439%" x2="103.630422%" y2="71.1332543%" id="linearGradient-6">
            <stop stop-color="#BFD6F9" offset="0%"></stop>
            <stop stop-color="#F3F6FE" offset="100%"></stop>
        </linearGradient>
        <linearGradient x1="89.8473889%" y1="61.7348066%" x2="0%" y2="61.7348066%" id="linearGradient-7">
            <stop stop-color="#CAD9F3" offset="0%"></stop>
            <stop stop-color="#D5E3F7" offset="100%"></stop>
        </linearGradient>
        <filter x="-18.5%" y="-60.0%" width="136.9%" height="220.0%" filterUnits="objectBoundingBox" id="filter-8">
            <feGaussianBlur stdDeviation="4" in="SourceGraphic"></feGaussianBlur>
        </filter>
        <linearGradient x1="44.0988019%" y1="52.3024161%" x2="128.792906%" y2="44.1359555%" id="linearGradient-9">
            <stop stop-color="#5073E5" offset="0%"></stop>
            <stop stop-color="#5E7CE0" offset="100%"></stop>
        </linearGradient>
        <linearGradient x1="44.0988019%" y1="58.7051225%" x2="128.792906%" y2="27.8288442%" id="linearGradient-10">
            <stop stop-color="#5073E5" offset="0%"></stop>
            <stop stop-color="#5E7CE0" offset="100%"></stop>
        </linearGradient>
        <linearGradient x1="44.0988019%" y1="51.1935725%" x2="128.792906%" y2="46.9600793%" id="linearGradient-11">
            <stop stop-color="#5073E5" offset="0%"></stop>
            <stop stop-color="#5E7CE0" offset="100%"></stop>
        </linearGradient>
        <linearGradient x1="44.0988019%" y1="54.9527528%" x2="128.792906%" y2="37.3857888%" id="linearGradient-12">
            <stop stop-color="#5073E5" offset="0%"></stop>
            <stop stop-color="#5E7CE0" offset="100%"></stop>
        </linearGradient>
        <path d="M86.0833333,43 L86.083,45.916 L89,45.9166667 L89,47.0833333 L86.083,47.083 L86.0833333,50 L84.9166667,50 L84.916,47.083 L82,47.0833333 L82,45.9166667 L84.916,45.916 L84.9166667,43 L86.0833333,43 Z" id="path-13"></path>
        <filter x="-28.6%" y="-28.6%" width="157.1%" height="157.1%" filterUnits="objectBoundingBox" id="filter-14">
            <feMorphology radius="0.5" operator="dilate" in="SourceAlpha" result="shadowSpreadOuter1"></feMorphology>
            <feOffset dx="0" dy="0" in="shadowSpreadOuter1" result="shadowOffsetOuter1"></feOffset>
            <feGaussianBlur stdDeviation="0.5" in="shadowOffsetOuter1" result="shadowBlurOuter1"></feGaussianBlur>
            <feComposite in="shadowBlurOuter1" in2="SourceAlpha" operator="out" result="shadowBlurOuter1"></feComposite>
            <feColorMatrix values="0 0 0 0 0.232993057   0 0 0 0 0.361563365   0 0 0 0 0.790131058  0 0 0 1 0" type="matrix" in="shadowBlurOuter1"></feColorMatrix>
        </filter>
        <linearGradient x1="100%" y1="47.3372781%" x2="6.58643108%" y2="52.6627219%" id="linearGradient-15">
            <stop stop-color="#FFCC00" offset="0%"></stop>
            <stop stop-color="#FF9D00" offset="100%"></stop>
        </linearGradient>
        <linearGradient x1="44.0988019%" y1="51.4735463%" x2="128.792906%" y2="46.2470115%" id="linearGradient-16">
            <stop stop-color="#5073E5" offset="0%"></stop>
            <stop stop-color="#5E7CE0" offset="100%"></stop>
        </linearGradient>
        <linearGradient x1="44.0988019%" y1="51.4735463%" x2="128.792906%" y2="46.2470115%" id="linearGradient-17">
            <stop stop-color="#5073E5" offset="0%"></stop>
            <stop stop-color="#5E7CE0" offset="100%"></stop>
        </linearGradient>
        <path d="M1,10 L24,10 C24.5522847,10 25,10.4477153 25,11 L25,14 C25,14.5522847 24.5522847,15 24,15 L1,15 C0.44771525,15 6.76353751e-17,14.5522847 0,14 L0,11 C-6.76353751e-17,10.4477153 0.44771525,10 1,10 Z" id="path-18"></path>
        <filter x="-18.0%" y="-50.0%" width="136.0%" height="280.0%" filterUnits="objectBoundingBox" id="filter-19">
            <feMorphology radius="0.5" operator="dilate" in="SourceAlpha" result="shadowSpreadOuter1"></feMorphology>
            <feOffset dx="0" dy="2" in="shadowSpreadOuter1" result="shadowOffsetOuter1"></feOffset>
            <feGaussianBlur stdDeviation="1" in="shadowOffsetOuter1" result="shadowBlurOuter1"></feGaussianBlur>
            <feComposite in="shadowBlurOuter1" in2="SourceAlpha" operator="out" result="shadowBlurOuter1"></feComposite>
            <feColorMatrix values="0 0 0 0 0.368627451   0 0 0 0 0.48627451   0 0 0 0 0.878431373  0 0 0 0.65213034 0" type="matrix" in="shadowBlurOuter1"></feColorMatrix>
        </filter>
        <path d="M1,0 L24,0 C24.5522847,-1.01453063e-16 25,0.44771525 25,1 L25,4 C25,4.55228475 24.5522847,5 24,5 L1,5 C0.44771525,5 6.76353751e-17,4.55228475 0,4 L0,1 C-6.76353751e-17,0.44771525 0.44771525,1.01453063e-16 1,0 Z" id="path-20"></path>
        <filter x="-18.0%" y="-50.0%" width="136.0%" height="280.0%" filterUnits="objectBoundingBox" id="filter-21">
            <feMorphology radius="0.5" operator="dilate" in="SourceAlpha" result="shadowSpreadOuter1"></feMorphology>
            <feOffset dx="0" dy="2" in="shadowSpreadOuter1" result="shadowOffsetOuter1"></feOffset>
            <feGaussianBlur stdDeviation="1" in="shadowOffsetOuter1" result="shadowBlurOuter1"></feGaussianBlur>
            <feComposite in="shadowBlurOuter1" in2="SourceAlpha" operator="out" result="shadowBlurOuter1"></feComposite>
            <feColorMatrix values="0 0 0 0 0.368627451   0 0 0 0 0.48627451   0 0 0 0 0.878431373  0 0 0 0.65213034 0" type="matrix" in="shadowBlurOuter1"></feColorMatrix>
        </filter>
    </defs>
    <g id="页面一" stroke="none" stroke-width="1" fill="none" fill-rule="evenodd">
        <g id="-TinyUI-ICON-1-【9-2】-无阴影" transform="translate(-1873.000000, -1596.000000)">
            <g id="TagsInput-标签输入" transform="translate(1873.000000, 1596.000000)">
                <g id="编组">
                    <g transform="translate(9.000000, 1.000000)" id="多边形">
                        <polygon fill="url(#linearGradient-1)" opacity="0.54620216" points="53.2605623 0 106.521125 30.75 53.2605623 62 0 30.75"></polygon>
                        <polygon fill="url(#linearGradient-2)" points="53.2605623 61.5 106.521125 86.75 53.2605623 118 0 86.75"></polygon>
                        <polygon fill="url(#linearGradient-3)" opacity="0.600606283" points="53.2605623 62 53.2605623 123 7.39138783e-15 92.25 0 30.75"></polygon>
                        <polygon fill="url(#linearGradient-4)" opacity="0.791265578" points="53.2605623 62 106.521125 30.75 106.521125 92.25 53.2605623 123"></polygon>
                        <polygon fill="url(#linearGradient-5)" points="53.2605623 118.007802 53.2605623 123 7.39138783e-15 92.25 0 86.9161706"></polygon>
                        <polygon fill="url(#linearGradient-6)" transform="translate(79.630281, 104.958085) scale(-1, 1) translate(-79.630281, -104.958085) " points="106.260562 118.007802 106.260562 123 53 92.25 53 86.9161706"></polygon>
                    </g>
                    <ellipse id="椭圆形" fill="url(#linearGradient-7)" filter="url(#filter-8)" cx="62.5" cy="90" rx="32.5" ry="10"></ellipse>
                </g>
                <rect id="矩形" fill="url(#linearGradient-9)" opacity="0.303770519" x="26" y="37" width="72" height="18" rx="4"></rect>
                <rect id="矩形备份-6" fill="url(#linearGradient-10)" opacity="0.204287574" x="26" y="59" width="72" height="35" rx="4"></rect>
                <path d="M35.5,64 L76.5,64 C78.9852814,64 81,66.0147186 81,68.5 C81,70.9852814 78.9852814,73 76.5,73 L35.5,73 C33.0147186,73 31,70.9852814 31,68.5 C31,66.0147186 33.0147186,64 35.5,64 Z" id="形状结合备份" fill="url(#linearGradient-11)" opacity="0.303770519"></path>
                <path d="M35.5,79 L55.5,79 C57.9852814,79 60,81.0147186 60,83.5 C60,85.9852814 57.9852814,88 55.5,88 L35.5,88 C33.0147186,88 31,85.9852814 31,83.5 C31,81.0147186 33.0147186,79 35.5,79 Z" id="形状结合备份-17" fill="#5073E5"></path>
                <path d="M68,41 L88,41 C90.7614237,41 93,43.2385763 93,46 L93,47 C93,49.7614237 90.7614237,52 88,52 L68,52 C65.2385763,52 63,49.7614237 63,47 L63,46 C63,43.2385763 65.2385763,41 68,41 Z" id="形状结合备份-24" fill="url(#linearGradient-12)" opacity="0.604724702"></path>
                <g id="形状结合" fill-rule="nonzero" transform="translate(85.500000, 46.500000) rotate(-315.000000) translate(-85.500000, -46.500000) ">
                    <use fill="black" fill-opacity="1" filter="url(#filter-14)" xlink:href="#path-13"></use>
                    <use stroke="#FFFFFF" stroke-width="1" fill="#FFFFFF" xlink:href="#path-13"></use>
                </g>
                <path d="M49.5,45 L59.5,45 C60.3284271,45 61,45.6715729 61,46.5 C61,47.3284271 60.3284271,48 59.5,48 L49.5,48 C48.6715729,48 48,47.3284271 48,46.5 C48,45.6715729 48.6715729,45 49.5,45 Z" id="形状结合备份-19" fill="url(#linearGradient-15)" transform="translate(54.500000, 46.500000) rotate(-90.000000) translate(-54.500000, -46.500000) "></path>
                <g id="编组-12" transform="translate(26.000000, 27.000000)">
                    <g id="形状结合备份-16" transform="translate(12.500000, 12.500000) rotate(-90.000000) translate(-12.500000, -12.500000) ">
                        <use fill="black" fill-opacity="1" filter="url(#filter-19)" xlink:href="#path-18"></use>
                        <use stroke="url(#linearGradient-17)" stroke-width="1" fill="url(#linearGradient-16)" fill-rule="evenodd" xlink:href="#path-18"></use>
                    </g>
                    <g id="形状结合备份-2">
                        <use fill="black" fill-opacity="1" filter="url(#filter-21)" xlink:href="#path-20"></use>
                        <use stroke="url(#linearGradient-17)" stroke-width="1" fill="url(#linearGradient-16)" fill-rule="evenodd" xlink:href="#path-20"></use>
                    </g>
                </g>
            </g>
        </g>
    </g>
</svg>