<?xml version="1.0" encoding="UTF-8"?>
<svg width="125px" height="125px" viewBox="0 0 125 125" version="1.1" xmlns="http://www.w3.org/2000/svg" xmlns:xlink="http://www.w3.org/1999/xlink">
    <title>Theme 主题配置</title>
    <defs>
        <linearGradient x1="50%" y1="45.9685271%" x2="50%" y2="100%" id="linearGradient-1">
            <stop stop-color="#ECF3FB" offset="0%"></stop>
            <stop stop-color="#FFFFFF" offset="100%"></stop>
        </linearGradient>
        <linearGradient x1="50.3956523%" y1="35.9331967%" x2="50%" y2="64.0668033%" id="linearGradient-2">
            <stop stop-color="#E3EFFD" stop-opacity="0.00575352382" offset="0%"></stop>
            <stop stop-color="#E5F0FD" offset="34.0601199%"></stop>
            <stop stop-color="#F0F6FE" offset="100%"></stop>
        </linearGradient>
        <linearGradient x1="33.3333333%" y1="34.495573%" x2="96.9740837%" y2="65.4421891%" id="linearGradient-3">
            <stop stop-color="#D5E6F9" offset="0%"></stop>
            <stop stop-color="#F7FBFF" stop-opacity="0" offset="100%"></stop>
        </linearGradient>
        <linearGradient x1="90.9912104%" y1="29.4309598%" x2="33.3333333%" y2="67.7472684%" id="linearGradient-4">
            <stop stop-color="#D5E6F9" offset="0%"></stop>
            <stop stop-color="#E7F0F9" stop-opacity="0" offset="100%"></stop>
        </linearGradient>
        <linearGradient x1="-5.8027489%" y1="27.0499439%" x2="103.630422%" y2="71.1332543%" id="linearGradient-5">
            <stop stop-color="#CEE6FE" offset="0%"></stop>
            <stop stop-color="#8AB5F2" offset="100%"></stop>
        </linearGradient>
        <linearGradient x1="-5.8027489%" y1="27.0499439%" x2="103.630422%" y2="71.1332543%" id="linearGradient-6">
            <stop stop-color="#BFD6F9" offset="0%"></stop>
            <stop stop-color="#F3F6FE" offset="100%"></stop>
        </linearGradient>
        <linearGradient x1="89.8473889%" y1="61.7348066%" x2="0%" y2="61.7348066%" id="linearGradient-7">
            <stop stop-color="#CAD9F3" offset="0%"></stop>
            <stop stop-color="#D5E3F7" offset="100%"></stop>
        </linearGradient>
        <filter x="-18.5%" y="-60.0%" width="136.9%" height="220.0%" filterUnits="objectBoundingBox" id="filter-8">
            <feGaussianBlur stdDeviation="4" in="SourceGraphic"></feGaussianBlur>
        </filter>
        <linearGradient x1="44.0988019%" y1="76.9198201%" x2="128.792906%" y2="-18.5623347%" id="linearGradient-9">
            <stop stop-color="#5073E5" offset="0%"></stop>
            <stop stop-color="#5E7CE0" offset="100%"></stop>
        </linearGradient>
        <linearGradient x1="44.0988019%" y1="76.9198201%" x2="128.792906%" y2="-18.5623347%" id="linearGradient-10">
            <stop stop-color="#5073E5" offset="0%"></stop>
            <stop stop-color="#5E7CE0" offset="100%"></stop>
        </linearGradient>
        <linearGradient x1="50%" y1="0%" x2="50%" y2="100%" id="linearGradient-11">
            <stop stop-color="#FFCC00" offset="0%"></stop>
            <stop stop-color="#FF9D00" offset="100%"></stop>
        </linearGradient>
        <path d="M59,57 C59.5522847,57 60,57.4477153 60,58 L60,60 C60,60.5522847 59.5522847,61 59,61 C58.4477153,61 58,60.5522847 58,60 L58,58 C58,57.4477153 58.4477153,57 59,57 Z M46.979,60.999 C47.3694653,60.6085347 48.0025347,60.6085347 48.393,60.999 L49.809,62.415 C50.1994653,62.8054653 50.1994653,63.4385347 49.809,63.829 C49.4185347,64.2194653 48.7854653,64.2194653 48.395,63.829 L46.979,62.413 C46.5885347,62.0225347 46.5885347,61.3894653 46.979,60.999 Z M68.9795002,62.4124998 L70.392,61 C70.7830176,60.6089824 71.4169824,60.6089824 71.808,61 C72.1988794,61.3908794 72.1988794,62.0246201 71.808,62.4154996 C71.8079166,62.415583 71.8078332,62.4156663 71.8077498,62.4157497 L70.3937502,63.82875 C70.0030086,64.2192154 69.3697152,64.2189916 68.9792497,63.82825 C68.9791664,63.8281667 68.9790832,63.8280833 68.979,63.828 C68.5884539,63.4369015 68.5886778,62.8033222 68.9795002,62.4124998 Z M44,71 L46,71 C46.5522847,71 47,71.4477153 47,72 C47,72.5522847 46.5522847,73 46,73 L44,73 C43.4477153,73 43,72.5522847 43,72 C43,71.4477153 43.4477153,71 44,71 Z M72,71 L74,71 C74.5522847,71 75,71.4477153 75,72 C75,72.5522847 74.5522847,73 74,73 L72,73 C71.4477153,73 71,72.5522847 71,72 C71,71.4477153 71.4477153,71 72,71 Z" id="path-12"></path>
        <filter x="-10.9%" y="-15.6%" width="121.9%" height="143.8%" filterUnits="objectBoundingBox" id="filter-13">
            <feOffset dx="0" dy="1" in="SourceAlpha" result="shadowOffsetOuter1"></feOffset>
            <feGaussianBlur stdDeviation="1" in="shadowOffsetOuter1" result="shadowBlurOuter1"></feGaussianBlur>
            <feColorMatrix values="0 0 0 0 0.661752894   0 0 0 0 0.324547702   0 0 0 0 0.00489962574  0 0 0 0.5 0" type="matrix" in="shadowBlurOuter1"></feColorMatrix>
        </filter>
    </defs>
    <g id="页面一" stroke="none" stroke-width="1" fill="none" fill-rule="evenodd">
        <g id="-TinyUI-ICON-2-【9-2】-无阴影" transform="translate(-1873.000000, -1893.000000)">
            <g id="Theme-主题配置" transform="translate(1873.000000, 1893.000000)">
                <g id="编组">
                    <g transform="translate(9.000000, 1.000000)" id="多边形">
                        <polygon fill="url(#linearGradient-1)" opacity="0.54620216" points="53.2605623 0 106.521125 30.75 53.2605623 62 0 30.75"></polygon>
                        <polygon fill="url(#linearGradient-2)" points="53.2605623 61.5 106.521125 86.75 53.2605623 118 0 86.75"></polygon>
                        <polygon fill="url(#linearGradient-3)" opacity="0.600606283" points="53.2605623 62 53.2605623 123 7.39138783e-15 92.25 0 30.75"></polygon>
                        <polygon fill="url(#linearGradient-4)" opacity="0.791265578" points="53.2605623 62 106.521125 30.75 106.521125 92.25 53.2605623 123"></polygon>
                        <polygon fill="url(#linearGradient-5)" points="53.2605623 118.007802 53.2605623 123 7.39138783e-15 92.25 0 86.9161706"></polygon>
                        <polygon fill="url(#linearGradient-6)" transform="translate(79.630281, 104.958085) scale(-1, 1) translate(-79.630281, -104.958085) " points="106.260562 118.007802 106.260562 123 53 92.25 53 86.9161706"></polygon>
                    </g>
                    <ellipse id="椭圆形" fill="url(#linearGradient-7)" filter="url(#filter-8)" cx="62.5" cy="90" rx="32.5" ry="10"></ellipse>
                </g>
                <path d="M43.1916608,89.241084 C41.7093275,87.5517265 41.7825789,85.9585495 41.8389211,85.5097953 C41.8689746,85.1100924 42.8647047,72.9205487 43.7027032,67.2378088 C43.3983367,67.0303345 42.7520204,66.7702294 42.3781675,66.6193631 C42.0683747,66.4993648 41.7625888,66.3691981 41.4613032,66.2290729 C40.2250127,65.6464215 37.6585722,64.370024 37.6585722,64.370024 C34.468405,62.899343 32.5764188,61.0289592 32.1104898,58.841796 C31.7366369,57.0902625 32.3735078,55.581865 33.0930755,54.7522994 C33.1784935,54.654622 33.2708083,54.5632429 33.3693039,54.4788708 L48.3678058,41.6370757 C49.0334808,41.0646926 49.9391421,40.8618479 50.7841594,41.0958748 C51.6291767,41.3299018 52.3029815,41.9701786 52.5819072,42.8041682 C54.2259351,47.6894247 58.9905778,48.4209538 61.6866119,48.4209538 C62.4043301,48.4209538 62.8608798,48.3644121 62.8646447,48.3624898 C63.0961603,48.3339031 63.3303333,48.3345489 63.5616888,48.3644121 C63.5616888,48.3644121 64.0088591,48.4190978 64.7021382,48.4190978 C67.3455951,48.4190978 72.0200111,47.6912807 73.6358349,42.8135807 C73.9139056,41.9739633 74.5913194,41.3290941 75.44147,41.0946925 C76.2916207,40.860291 77.2022589,41.0673063 77.868761,41.6464883 L92.6512077,54.4882834 C92.748965,54.5728585 92.8400578,54.6648945 92.9236711,54.7635679 C93.6357089,55.5931998 94.2632005,57.1034534 93.8874982,58.8494189 C93.4215031,61.0251809 91.5558716,62.8917864 88.3431147,64.3926274 C88.3431147,64.3945497 85.8668348,65.6445655 84.6644288,66.2196603 C84.3938808,66.3478569 84.0857495,66.4760534 83.7588594,66.6099506 C83.3943198,66.7588946 82.7612138,67.01721 82.4643112,67.2226956 C83.2947798,72.954487 84.2736006,85.1119484 84.314949,85.6304352 C84.3600623,85.9623278 84.4295488,87.5649173 82.9359207,89.2637537 C80.1402806,92.4520962 73.6865627,94 63.2046791,94 C52.5443898,94 45.9985958,92.4426173 43.1916608,89.241084 Z" id="形状" stroke="url(#linearGradient-10)" fill="url(#linearGradient-9)"></path>
                <g id="主题-(2)" transform="translate(56.000000, 63.000000)" fill="#FFFFFF" fill-rule="nonzero">
                    <path d="M9.08293928,17.9535205 C8.33579793,17.9535205 7.58865655,17.4985936 7.2898,16.740382 L5.79551726,13.4042513 C5.64608898,13.252609 5.49666071,13.252609 5.34723243,13.1009667 L1.76095388,12.6460398 C1.01381253,12.4943975 0.26667115,11.8878283 0.117242874,11.1296167 C-0.181613679,10.3714052 0.117242874,9.61319367 0.714955978,9.00662446 L3.25523662,6.42870524 C3.4046649,6.27706293 3.4046649,6.12542062 3.4046649,5.97377834 L2.80695179,2.33436298 C2.65752352,1.57615147 3.10580834,0.817939922 3.70352145,0.363013022 C4.30123455,-0.0919139042 5.19780418,-0.0919139042 5.94494554,0.211370713 L9.08293928,1.87943608 C9.23236756,2.03107839 9.38179584,2.03107839 9.68065236,1.87943608 L12.8186461,0.211370713 C13.5657875,-0.0919139042 14.3129288,-0.0919139042 15.0600702,0.363013022 C15.6577833,0.817939948 15.9566398,1.57615147 15.8072116,2.48600529 L15.2094985,6.12542065 C15.2094985,6.27706296 15.2094985,6.42870527 15.3589267,6.58034755 L17.8992074,9.15826674 C18.4969205,9.76483598 18.6463487,10.5230475 18.3474922,11.281259 C18.0486357,12.0394706 17.4509226,12.6460398 16.7037812,12.6460398 L12.9680744,13.252609 C12.8186461,13.252609 12.6692178,13.4042513 12.5197896,13.5558936 L10.8760785,16.740382 C10.577222,17.4985936 9.97950891,17.9535205 9.08293928,17.9535205 L9.08293928,17.9535205 Z M21.438772,24.4902656 L14.3532543,17.2250158 C13.8013928,16.6649775 13.8013928,15.8249202 14.3532543,15.2648819 C14.9051158,14.7048436 15.732908,14.7048436 16.2847695,15.2648819 L23.646218,22.5301317 C24.2052246,23.0974209 24.0588867,24.1018363 23.5070252,24.6618745 C22.8682306,25.3101339 21.8406557,24.8981039 21.438772,24.4902656 Z" id="形状"></path>
                </g>
                <g id="形状" transform="translate(59.000000, 65.000000) scale(-1, 1) rotate(-315.000000) translate(-59.000000, -65.000000) ">
                    <use fill="black" fill-opacity="1" filter="url(#filter-13)" xlink:href="#path-12"></use>
                    <use fill="url(#linearGradient-11)" fill-rule="evenodd" xlink:href="#path-12"></use>
                </g>
            </g>
        </g>
    </g>
</svg>