<svg version="1.1" xmlns="http://www.w3.org/2000/svg" width="16px" height="16px"><path d="M12.529,11.469L9.061,8l3.469-3.469c0.294-0.294,0.295-0.768,0.001-1.062c-0.293-0.293-0.769-0.293-1.061,0L8,6.938L4.53,3.469c-0.292-0.293-0.767-0.293-1.061,0C3.177,3.762,3.177,4.238,3.471,4.532L6.939,8l-3.469,3.468c-0.294,0.293-0.294,0.768-0.001,1.062C3.616,12.678,3.81,12.75,4,12.75s0.384-0.072,0.53-0.219L8,9.062l3.47,3.469c0.147,0.146,0.339,0.219,0.53,0.219c0.192,0,0.384-0.072,0.53-0.219C12.823,12.236,12.824,11.762,12.529,11.469z"/></svg>