<svg style="cursor: pointer;" version="1.1" xmlns="http://www.w3.org/2000/svg" width="32" height="32"><path d="M1.6 2.925c0.6-0.6 1.4-0.6 1.8 0v0l25.6 24.2c0.2 0.2 0.4 0.6 0.4 1s-0.2 0.6-0.4 1c-0.2 0.2-0.6 0.4-1 0.4s-0.8-0.2-1-0.4v0l-5-5.2c-2 0.6-4 1-6 1-9.2 0-16-6.6-16-9.8 0-1.8 2-4.6 5.4-6.6v0l-3.6-3.8c-0.6-0.4-0.6-1.2-0.2-1.8zM9 11.725c-0.4 1-0.6 2.2-0.6 3.4 0 4.4 3.4 8 7.8 8 1.4 0 2.8-0.4 3.8-1v0l-2.4-2.4c-0.4 0.2-1 0.4-1.6 0.4-2.8 0-5-2.2-5-5 0-0.4 0-0.8 0.2-1.2v0l-2.2-2.2zM16 5.325c9.4 0 16 6.6 16 9.8 0 1.8-2 4.6-5.6 6.8v0l-3.4-3.2c0.6-1 0.8-2.2 0.8-3.4 0-4.4-3.4-8-7.8-8-1.4 0-2.8 0.4-4 1.2v0 0l-2-2c2-1 4-1.2 6-1.2zM16 9.925c2.8 0 5 2.2 5 5 0 0.4 0 1-0.2 1.4v0l-6.6-6c0.6-0.2 1.2-0.4 1.8-0.4z"></path></svg>
